<svg width="20" height="20" viewBox="0 0 20 20" fill="none" xmlns="http://www.w3.org/2000/svg">
<path d="M18.8573 0.000462677C18.8159 0.00177044 18.7746 0.00539097 18.7337 0.0113072H13.3263C13.1792 0.00922614 13.0331 0.0364122 12.8965 0.0912853C12.76 0.146158 12.6357 0.227624 12.5309 0.330949C12.4261 0.434273 12.3429 0.557395 12.2861 0.693159C12.2293 0.828924 12.2 0.974623 12.2 1.12179C12.2 1.26896 12.2293 1.41466 12.2861 1.55042C12.3429 1.68619 12.4261 1.80931 12.5309 1.91263C12.6357 2.01596 12.76 2.09742 12.8965 2.15229C13.0331 2.20717 13.1792 2.23435 13.3263 2.23227H16.1981L5.878 12.552C5.77141 12.6543 5.68632 12.7768 5.6277 12.9125C5.56908 13.0481 5.53812 13.194 5.53661 13.3418C5.53511 13.4895 5.5631 13.6361 5.61895 13.7729C5.6748 13.9096 5.75738 14.0339 5.86185 14.1384C5.96633 14.2429 6.09061 14.3254 6.2274 14.3813C6.36419 14.4371 6.51075 14.4651 6.6585 14.4636C6.80624 14.4621 6.9522 14.4311 7.08783 14.3725C7.22346 14.3139 7.34602 14.2288 7.44835 14.1222L17.7685 3.80257V6.6742C17.7664 6.82136 17.7936 6.96746 17.8484 7.10401C17.9033 7.24056 17.9848 7.36485 18.0881 7.46965C18.1914 7.57444 18.3146 7.65766 18.4503 7.71446C18.5861 7.77125 18.7318 7.8005 18.879 7.8005C19.0262 7.8005 19.1719 7.77125 19.3076 7.71446C19.4434 7.65766 19.5665 7.57444 19.6699 7.46965C19.7732 7.36485 19.8547 7.24056 19.9095 7.10401C19.9644 6.96746 19.9916 6.82136 19.9895 6.6742V1.26277C20.0116 1.10289 19.9986 0.940107 19.9514 0.785762C19.9042 0.631416 19.8239 0.489215 19.7162 0.36906C19.6084 0.248904 19.4757 0.153683 19.3274 0.0900256C19.1791 0.0263681 19.0186 -0.0041956 18.8573 0.000462677ZM2.22106 0.0113072C1.00718 0.0113072 0 1.01845 0 2.23227V17.779C0 18.9929 1.00718 20 2.22106 20H17.7685C18.9823 20 19.9895 18.9929 19.9895 17.779V11.1161C19.9916 10.969 19.9644 10.8229 19.9095 10.6863C19.8547 10.5498 19.7732 10.4255 19.6699 10.3207C19.5665 10.2159 19.4434 10.1327 19.3076 10.0759C19.1719 10.0191 19.0262 9.98984 18.879 9.98984C18.7318 9.98984 18.5861 10.0191 18.4503 10.0759C18.3146 10.1327 18.1914 10.2159 18.0881 10.3207C17.9848 10.4255 17.9033 10.5498 17.8484 10.6863C17.7936 10.8229 17.7664 10.969 17.7685 11.1161V17.779H2.22106V2.23227H8.88423C9.03139 2.23435 9.1775 2.20717 9.31406 2.15229C9.45061 2.09742 9.57491 2.01596 9.67971 1.91263C9.78451 1.80931 9.86773 1.68619 9.92453 1.55042C9.98133 1.41466 10.0106 1.26896 10.0106 1.12179C10.0106 0.974623 9.98133 0.828924 9.92453 0.693159C9.86773 0.557395 9.78451 0.434273 9.67971 0.330949C9.57491 0.227624 9.45061 0.146158 9.31406 0.0912853C9.1775 0.0364122 9.03139 0.00922614 8.88423 0.0113072H2.22106Z" fill="#CCCCCC"/>
</svg>
