<svg width="40" height="40" viewBox="0 0 40 40" fill="none" xmlns="http://www.w3.org/2000/svg">
<path fill-rule="evenodd" clip-rule="evenodd" d="M13.4541 17.4996C13.4541 17.8679 13.4939 18.1665 13.5638 18.3855C13.6436 18.6045 13.7434 18.8434 13.8831 19.1022C13.933 19.1818 13.9529 19.2614 13.9529 19.3311C13.9529 19.4307 13.8931 19.5302 13.7634 19.6297L13.1348 20.0478C13.0449 20.1075 12.9552 20.1374 12.8754 20.1374C12.7756 20.1374 12.6759 20.0876 12.576 19.998C12.4364 19.8487 12.3167 19.6894 12.2169 19.5302C12.117 19.3609 12.0173 19.1718 11.9075 18.9429C11.1292 19.8587 10.1514 20.3165 8.97407 20.3165C8.13599 20.3165 7.46747 20.0776 6.97859 19.5998C6.48971 19.122 6.24023 18.485 6.24023 17.6887C6.24023 16.8426 6.53957 16.1559 7.14824 15.6383C7.75691 15.1207 8.56511 14.8619 9.59273 14.8619C9.93194 14.8619 10.2812 14.8917 10.6504 14.9415C11.0196 14.9913 11.3988 15.0709 11.7978 15.1605V14.4339C11.7978 13.6774 11.6382 13.1499 11.3288 12.8413C11.0095 12.5328 10.4708 12.3835 9.70244 12.3835C9.35324 12.3835 8.99405 12.4232 8.62487 12.5128C8.25569 12.6024 7.8965 12.7119 7.5473 12.8512C7.38764 12.9209 7.26794 12.9607 7.1981 12.9806C7.12826 13.0005 7.0784 13.0104 7.03844 13.0104C6.89876 13.0104 6.82892 12.9108 6.82892 12.7018V12.2141C6.82892 12.0549 6.8489 11.9354 6.89876 11.8658C6.94862 11.7961 7.03844 11.7264 7.17812 11.6568C7.52732 11.4776 7.94645 11.3282 8.43533 11.2088C8.9243 11.0795 9.44306 11.0197 9.99188 11.0197C11.1792 11.0197 12.0473 11.2885 12.606 11.826C13.1548 12.3635 13.4342 13.1796 13.4342 14.2745V17.4995H13.4542L13.4541 17.4996ZM9.4031 19.0126C9.73241 19.0126 10.0716 18.9529 10.4308 18.8334C10.79 18.714 11.1093 18.495 11.3787 18.1964C11.5383 18.0074 11.658 17.7982 11.718 17.5594C11.7778 17.3205 11.8177 17.0319 11.8177 16.6935V16.2754C11.5284 16.2058 11.219 16.1461 10.8998 16.1062C10.5805 16.0664 10.2712 16.0465 9.96191 16.0465C9.29339 16.0465 8.80451 16.1759 8.4752 16.4447C8.14589 16.7134 7.98632 17.0917 7.98632 17.5893C7.98632 18.0572 8.10602 18.4055 8.3555 18.6444C8.59499 18.8932 8.94419 19.0126 9.40319 19.0126L9.4031 19.0126ZM17.4152 20.0875C17.2355 20.0875 17.1158 20.0577 17.036 19.988C16.9562 19.9283 16.8863 19.7889 16.8265 19.5997L14.4817 11.9056C14.4218 11.7066 14.3919 11.5772 14.3919 11.5075C14.3919 11.3483 14.4717 11.2587 14.6314 11.2587H15.6092C15.7988 11.2587 15.9285 11.2886 15.9984 11.3582C16.0782 11.4179 16.1381 11.5573 16.1979 11.7464L17.8742 18.3357L19.4307 11.7464C19.4806 11.5474 19.5404 11.4179 19.6202 11.3582C19.7001 11.2985 19.8397 11.2587 20.0194 11.2587H20.8176C21.0071 11.2587 21.1369 11.2886 21.2167 11.3582C21.2966 11.4179 21.3664 11.5573 21.4063 11.7464L22.9827 18.4153L24.7089 11.7464C24.7688 11.5474 24.8386 11.4179 24.9084 11.3582C24.9883 11.2985 25.118 11.2587 25.2976 11.2587H26.2255C26.3852 11.2587 26.475 11.3383 26.475 11.5075C26.475 11.5573 26.465 11.6071 26.455 11.6668C26.445 11.7265 26.425 11.8062 26.3852 11.9157L23.9805 19.6098C23.9207 19.8088 23.8509 19.9382 23.771 19.998C23.6912 20.0577 23.5615 20.0976 23.3919 20.0976H22.5338C22.3442 20.0976 22.2145 20.0677 22.1347 19.998C22.0548 19.9283 21.985 19.799 21.9451 19.5998L20.3986 13.1797L18.862 19.5899C18.8121 19.7889 18.7522 19.9183 18.6724 19.988C18.5925 20.0576 18.4528 20.0875 18.2733 20.0875H17.4152H17.4152ZM30.2364 20.3562C29.7176 20.3562 29.1987 20.2965 28.6999 20.1771C28.201 20.0577 27.8118 19.9283 27.5525 19.7789C27.3928 19.6893 27.2831 19.5899 27.2431 19.5003C27.2033 19.4107 27.1833 19.3112 27.1833 19.2216V18.7139C27.1833 18.5049 27.2631 18.4054 27.4128 18.4054C27.4726 18.4054 27.5325 18.4153 27.5923 18.4353C27.6522 18.4552 27.742 18.495 27.8418 18.5348C28.181 18.6841 28.5502 18.8035 28.9394 18.8832C29.3385 18.9628 29.7276 19.0026 30.1267 19.0026C30.7553 19.0026 31.2443 18.8931 31.5835 18.6741C31.9227 18.4551 32.1023 18.1365 32.1023 17.7285C32.1023 17.4498 32.0125 17.2209 31.8329 17.0318C31.6533 16.8426 31.3141 16.6735 30.8252 16.5142L29.3785 16.0663C28.6501 15.8373 28.1113 15.4989 27.7821 15.051C27.4528 14.613 27.2832 14.1253 27.2832 13.6077C27.2832 13.1897 27.373 12.8214 27.5526 12.5029C27.7321 12.1843 27.9716 11.9056 28.2709 11.6867C28.5703 11.4577 28.9095 11.2886 29.3086 11.1691C29.7078 11.0496 30.1268 10.9998 30.5658 10.9998C30.7853 10.9998 31.0148 11.0098 31.2344 11.0396C31.4639 11.0695 31.6734 11.1093 31.8829 11.149C32.0824 11.1988 32.2721 11.2486 32.4516 11.3083C32.6312 11.368 32.7709 11.4277 32.8706 11.4875C33.0103 11.5672 33.1101 11.6468 33.17 11.7363C33.2298 11.8159 33.2598 11.9255 33.2598 12.0648V12.5327C33.2598 12.7417 33.18 12.8512 33.0303 12.8512C32.9505 12.8512 32.8208 12.8114 32.6511 12.7317C32.0824 12.473 31.4438 12.3435 30.7354 12.3435C30.1667 12.3435 29.7177 12.4331 29.4083 12.6222C29.099 12.8113 28.9394 13.0999 28.9394 13.5081C28.9394 13.7868 29.0392 14.0257 29.2387 14.2148C29.4382 14.4038 29.8074 14.593 30.3362 14.7622L31.7531 15.2101C32.4715 15.439 32.9903 15.7576 33.2997 16.1656C33.609 16.5737 33.7587 17.0416 33.7587 17.5592C33.7587 17.9871 33.6688 18.3754 33.4993 18.7138C33.3197 19.0522 33.0803 19.3508 32.7709 19.5897C32.4616 19.8385 32.0924 20.0177 31.6634 20.1471C31.2144 20.2864 30.7455 20.3561 30.2365 20.3561L30.2364 20.3562Z" fill="white"/>
<path fill-rule="evenodd" clip-rule="evenodd" d="M32.1225 25.1938C28.8398 27.6126 24.0705 28.8965 19.9697 28.8965C14.2225 28.8965 9.0442 26.7764 5.1329 23.2529C4.82357 22.9742 5.10302 22.596 5.4722 22.8149C9.70273 25.2635 14.9211 26.7466 20.3189 26.7466C23.9608 26.7466 27.9618 25.9901 31.6436 24.4373C32.1923 24.1884 32.6613 24.7956 32.1225 25.1938Z" fill="#FF9900"/>
<path fill-rule="evenodd" clip-rule="evenodd" d="M33.4891 23.641C33.07 23.1035 30.7153 23.3822 29.6477 23.5117C29.3284 23.5514 29.2785 23.2728 29.5679 23.0637C31.4436 21.7499 34.5268 22.1281 34.886 22.5661C35.2451 23.014 34.7861 26.0897 33.0302 27.5627C32.7608 27.7917 32.5013 27.6723 32.6211 27.3737C33.0203 26.3882 33.9082 24.1686 33.4892 23.641H33.4891Z" fill="#FF9900"/>
</svg>
