<svg width="39" height="40" viewBox="0 0 39 40" fill="none" xmlns="http://www.w3.org/2000/svg">
<path d="M8.55993 32.0009L6.21289 5.00027H32.0037L29.6543 31.9968L19.0926 35L8.55993 32.0009V32.0009Z" fill="#1572B6"/>
<path d="M19.1094 32.7046L27.6438 30.2777L29.6517 7.20782H19.1094V32.7046Z" fill="#33A9DC"/>
<path d="M19.1094 16.9902H23.3819L23.6769 13.5991H19.1094V10.2876H27.2056L27.1281 11.1761L26.3344 20.3017H19.1094V16.9902Z" fill="white"/>
<path d="M19.1294 25.5904L19.1152 25.5947L15.5194 24.599L15.2895 21.9578H12.0488L12.501 27.1575L19.1147 29.0401L19.1294 29.0358V25.5904V25.5904Z" fill="#EBEBEB"/>
<path d="M23.1052 20.1617L22.7163 24.5964L19.1152 25.5933V29.0387L25.7343 27.1573L25.7828 26.5977L26.3445 20.1617H23.1052Z" fill="white"/>
<path d="M19.1191 10.2876V13.5991H11.3203L11.2556 12.855L11.1085 11.1761L11.0312 10.2876H19.1191V10.2876ZM19.1081 16.9906V20.3022H15.5577L15.493 19.558L15.3457 17.8792L15.2687 16.9906H19.1081V16.9906Z" fill="#EBEBEB"/>
</svg>
