<svg width="40" height="40" viewBox="0 0 40 40" fill="none" xmlns="http://www.w3.org/2000/svg">
<path fill-rule="evenodd" clip-rule="evenodd" d="M18.8179 22.55C18.5427 24.3484 17.8393 25.6736 16.728 26.5581C15.6302 27.4276 14.2341 27.8707 12.5204 27.8707C11.354 27.8707 10.3853 27.6693 9.6041 27.2788C8.81359 26.8837 8.17236 26.3453 7.67601 25.6631C7.17544 24.9751 6.79715 24.169 6.54367 23.2413C6.32845 22.3601 6.20277 21.4134 6.16767 20.4002H20.1618L20.171 20.1554C20.2153 18.9814 20.0936 17.8496 19.8049 16.7609C19.5369 15.6683 19.0895 14.694 18.4612 13.8411C17.8503 12.9823 17.0484 12.2949 16.0606 11.7786C15.0823 11.2558 13.9208 11 12.5856 11C11.6149 11 10.6678 11.2033 9.74634 11.6077C8.8211 12.0137 8.0098 12.6112 7.3134 13.3968C6.61583 14.1619 6.05768 15.1022 5.63566 16.2123C5.21005 17.3318 5 18.6009 5 20.0155C5 21.2725 5.14341 22.4558 5.43177 23.5644L5.43207 23.5656C5.7217 24.6568 6.16879 25.6199 6.77577 26.4513L6.77778 26.454C7.38982 27.2697 8.17197 27.9036 9.12015 28.3549L9.12226 28.3559C10.0987 28.8099 11.2567 29.0204 12.5877 28.9984C14.5486 28.998 16.2144 28.4508 17.5688 27.3452L17.5708 27.3436C18.9318 26.2099 19.7284 24.6267 19.9738 22.6193L20.0087 22.334H18.8509L18.8179 22.55ZM18.5982 16.671C18.8491 17.4812 18.9859 18.3372 19.0074 19.24H6.17816C6.25855 18.1984 6.46496 17.2621 6.79458 16.4288C7.15428 15.5193 7.61716 14.7538 8.1806 14.128C8.76604 13.4801 9.432 12.992 10.1789 12.66C10.949 12.3273 11.7722 12.1603 12.6508 12.1603C13.7043 12.1603 14.6198 12.3602 15.4042 12.7522L15.4066 12.7534L15.409 12.7546C16.1999 13.1291 16.8524 13.6473 17.3701 14.3097L17.3716 14.3117L17.3731 14.3135C17.9152 14.9805 18.3241 15.7646 18.5978 16.6694L18.5982 16.671ZM34.4069 11.3908H32.9863L27.3477 18.8102L21.8367 11.3908H20.3508L26.6345 19.7207L19.7575 28.6402H21.1824L27.3459 20.6277L33.5414 28.6402H35L28.0897 19.7207L34.4069 11.3908Z" fill="white"/>
</svg>
