<svg width="39" height="40" viewBox="0 0 39 40" fill="none" xmlns="http://www.w3.org/2000/svg">
<path d="M14.875 35C16.1679 35 17.4079 34.4732 18.3222 33.5355C19.2364 32.5979 19.75 31.3261 19.75 30V25H14.875C13.5821 25 12.3421 25.5268 11.4279 26.4645C10.5136 27.4021 10 28.6739 10 30C10 31.3261 10.5136 32.5979 11.4279 33.5355C12.3421 34.4732 13.5821 35 14.875 35V35Z" fill="#0ACF83"/>
<path d="M10 20C10 18.674 10.5136 17.4022 11.4279 16.4645C12.3421 15.5268 13.5821 15 14.875 15H19.75V25H14.875C13.5821 25 12.3421 24.4733 11.4279 23.5356C10.5136 22.5979 10 21.3261 10 20V20Z" fill="#A259FF"/>
<path d="M10 10C10 8.6746 10.5131 7.40342 11.4265 6.46585C12.3399 5.52828 13.5789 5.00104 14.8712 5H19.7462V15H14.875C13.5821 15 12.3421 14.4732 11.4279 13.5355C10.5136 12.5979 10 11.3261 10 10V10Z" fill="#F24E1E"/>
<path d="M19.75 5H24.625C25.9179 5 27.1579 5.52678 28.0722 6.46447C28.9864 7.40215 29.5 8.67392 29.5 10C29.5 11.3261 28.9864 12.5979 28.0722 13.5355C27.1579 14.4732 25.9179 15 24.625 15H19.75V5Z" fill="#FF7262"/>
<path d="M29.5 20C29.5 21.3261 28.9864 22.5979 28.0722 23.5356C27.1579 24.4733 25.9179 25 24.625 25C23.3321 25 22.0921 24.4733 21.1779 23.5356C20.2636 22.5979 19.75 21.3261 19.75 20C19.75 18.674 20.2636 17.4022 21.1779 16.4645C22.0921 15.5268 23.3321 15 24.625 15C25.9179 15 27.1579 15.5268 28.0722 16.4645C28.9864 17.4022 29.5 18.674 29.5 20V20Z" fill="#1ABCFE"/>
</svg>
