<svg width="39" height="40" viewBox="0 0 39 40" fill="none" xmlns="http://www.w3.org/2000/svg">
<path d="M34.4344 18.6638L21.3353 5.5658C20.5816 4.8114 19.3582 4.8114 18.6036 5.5658L15.8837 8.28605L19.3338 11.7363C20.1358 11.4655 21.0551 11.647 21.6942 12.2862C22.3365 12.9294 22.5168 13.8566 22.2392 14.6614L25.5645 17.9868C26.369 17.7095 27.2972 17.8886 27.9395 18.5322C28.8376 19.4301 28.8376 20.885 27.9395 21.7831C27.0413 22.6814 25.5865 22.6814 24.6877 21.7831C24.0124 21.1072 23.8454 20.115 24.1874 19.2829L21.0863 16.1816L21.086 24.3426C21.305 24.451 21.5116 24.5957 21.6941 24.7774C22.5919 25.6751 22.5919 27.1298 21.6941 28.029C20.796 28.9268 19.3405 28.9268 18.4433 28.029C17.5453 27.1298 17.5453 25.6752 18.4433 24.7774C18.6652 24.5558 18.922 24.3882 19.196 24.2758V16.0389C18.9219 15.927 18.6654 15.7606 18.4432 15.5372C17.763 14.8576 17.5992 13.8593 17.948 13.024L14.5469 9.62224L5.56596 18.6033C4.81135 19.3583 4.81135 20.5817 5.56596 21.3362L18.6642 34.4342C19.4184 35.1886 20.6413 35.1886 21.3965 34.4342L34.4342 21.3981C35.1886 20.6433 35.1886 19.4195 34.4342 18.6649" fill="#F05133"/>
</svg>
