<svg width="40" height="40" viewBox="0 0 40 40" fill="none" xmlns="http://www.w3.org/2000/svg">
<path fill-rule="evenodd" clip-rule="evenodd" d="M7.26546 17.3936C7.20703 17.3936 7.19243 17.3644 7.22164 17.3206L7.52837 16.9262C7.55758 16.8824 7.63061 16.8532 7.68903 16.8532H12.9034C12.9618 16.8532 12.9764 16.897 12.9472 16.9408L12.6989 17.3206C12.6697 17.3644 12.5967 17.4082 12.5529 17.4082L7.26546 17.3936Z" fill="white"/>
<path fill-rule="evenodd" clip-rule="evenodd" d="M5.05842 18.7374C5 18.7374 4.98539 18.7081 5.01461 18.6643L5.32133 18.27C5.35055 18.2261 5.42358 18.1969 5.482 18.1969H12.1424C12.2008 18.1969 12.23 18.2407 12.2154 18.2846L12.0986 18.6351C12.084 18.6935 12.0255 18.7227 11.9671 18.7227L5.05842 18.7374Z" fill="white"/>
<path fill-rule="evenodd" clip-rule="evenodd" d="M8.59163 20.0811C8.5332 20.0811 8.5186 20.0373 8.54781 19.9935L8.75229 19.6283C8.78151 19.5845 8.83993 19.5407 8.89836 19.5407H11.8196C11.878 19.5407 11.9072 19.5845 11.9072 19.643L11.878 19.9935C11.878 20.0519 11.8196 20.0957 11.7758 20.0957L8.59163 20.0811Z" fill="white"/>
<path fill-rule="evenodd" clip-rule="evenodd" d="M23.7527 17.1307C22.8325 17.3644 22.2044 17.5397 21.2988 17.7734C21.0798 17.8318 21.0651 17.8464 20.8753 17.6273C20.6562 17.379 20.4955 17.2184 20.1888 17.0723C19.2686 16.6195 18.3776 16.751 17.5451 17.2914C16.5519 17.9341 16.0406 18.8835 16.0553 20.0665C16.0699 21.235 16.8732 22.199 18.0271 22.3597C19.0203 22.4912 19.8528 22.1406 20.5101 21.3957C20.6416 21.235 20.7584 21.0598 20.9045 20.8553C20.3787 20.8553 19.7214 20.8553 18.0855 20.8553C17.7788 20.8553 17.7057 20.6654 17.808 20.4171C17.9979 19.9643 18.3484 19.2048 18.5529 18.825C18.5967 18.7374 18.699 18.5913 18.918 18.5913H24.2347C24.2055 18.9857 24.2055 19.3801 24.147 19.7744C23.9864 20.8261 23.592 21.7901 22.9493 22.6372C21.8977 24.0248 20.5247 24.8866 18.7866 25.1203C17.3552 25.3101 16.026 25.0326 14.8576 24.1563C13.7767 23.3383 13.1632 22.2575 13.0026 20.9137C12.8127 19.3216 13.2801 17.8902 14.2441 16.6341C15.2811 15.2757 16.6541 14.414 18.3338 14.1073C19.7068 13.859 21.0213 14.0196 22.2044 14.823C22.9785 15.3342 23.5336 16.0353 23.8987 16.8824C23.9864 17.0139 23.9279 17.0869 23.7527 17.1307Z" fill="white"/>
<path d="M28.588 25.2079C27.2588 25.1787 26.0465 24.7989 25.0241 23.9226C24.1623 23.1777 23.6219 22.2283 23.4466 21.1036C23.1837 19.4531 23.6365 17.9925 24.6297 16.6925C25.6959 15.2904 26.9813 14.56 28.7194 14.2533C30.2092 13.9904 31.6114 14.1365 32.8822 14.9982C34.036 15.787 34.7517 16.8532 34.9416 18.2554C35.1899 20.2272 34.6203 21.8339 33.2619 23.2069C32.2979 24.1855 31.1148 24.7989 29.7564 25.0764C29.3621 25.1495 28.9677 25.1641 28.588 25.2079ZM32.0642 19.307C32.0496 19.1172 32.0496 18.9711 32.0204 18.825C31.7575 17.379 30.4283 16.5611 29.0407 16.8824C27.6824 17.1891 26.806 18.0509 26.4847 19.4239C26.2218 20.5632 26.7768 21.717 27.8284 22.1844C28.6318 22.535 29.4351 22.4912 30.2092 22.0968C31.3631 21.498 31.9912 20.5632 32.0642 19.307Z" fill="white"/>
</svg>
