<svg width="40" height="40" viewBox="0 0 40 40" fill="none" xmlns="http://www.w3.org/2000/svg">
<path d="M7.98073 27.2288L9.08203 27.8647L21.3509 6.61494L20.2496 5.97909L7.98073 27.2288Z" fill="#E535AB"/>
<path d="M32.2643 25.5312H7.72656V26.8029H32.2643V25.5312Z" fill="#E535AB"/>
<path d="M8.21285 26.2456L20.4863 33.3319L21.1222 32.2306L8.8487 25.1443L8.21285 26.2456Z" fill="#E535AB"/>
<path d="M18.875 7.77682L31.1484 14.8631L31.7843 13.7618L19.5108 6.67553L18.875 7.77682Z" fill="#E535AB"/>
<path d="M8.21766 13.757L8.85352 14.8583L21.127 7.77203L20.4911 6.67073L8.21766 13.757Z" fill="#E535AB"/>
<path d="M18.653 6.61516L30.9219 27.8649L32.0232 27.229L19.7543 5.97931L18.653 6.61516Z" fill="#E535AB"/>
<path d="M9.97092 12.9137H8.69922V27.0863H9.97092V12.9137Z" fill="#E535AB"/>
<path d="M31.301 12.9137H30.0293V27.0863H31.301V12.9137Z" fill="#E535AB"/>
<path d="M19.7122 31.8316L20.2676 32.7936L30.9422 26.6304L30.3868 25.6685L19.7122 31.8316Z" fill="#E535AB"/>
<path d="M32.984 27.5C32.2486 28.7794 30.6091 29.216 29.3298 28.4806C28.0504 27.7452 27.6137 26.1057 28.3492 24.8264C29.0846 23.547 30.7241 23.1103 32.0034 23.8458C33.2905 24.5889 33.7271 26.2206 32.984 27.5Z" fill="#E535AB"/>
<path d="M11.6422 15.1737C10.9068 16.453 9.26735 16.8897 7.98798 16.1543C6.70862 15.4188 6.27195 13.7794 7.00739 12.5C7.74284 11.2207 9.38226 10.784 10.6616 11.5194C11.941 12.2626 12.3777 13.8943 11.6422 15.1737Z" fill="#E535AB"/>
<path d="M7.0152 27.5C6.27976 26.2206 6.71643 24.5889 7.9958 23.8458C9.27516 23.1103 10.9069 23.547 11.65 24.8264C12.3855 26.1057 11.9488 27.7375 10.6694 28.4806C9.38241 29.216 7.75065 28.7794 7.0152 27.5Z" fill="#E535AB"/>
<path d="M28.357 15.1737C27.6216 13.8943 28.0582 12.2626 29.3376 11.5194C30.617 10.784 32.2487 11.2207 32.9918 12.5C33.7273 13.7794 33.2906 15.4112 32.0112 16.1543C30.7319 16.8897 29.0924 16.453 28.357 15.1737Z" fill="#E535AB"/>
<path d="M19.9998 35C18.5213 35 17.3262 33.8049 17.3262 32.3264C17.3262 30.8478 18.5213 29.6527 19.9998 29.6527C21.4784 29.6527 22.6735 30.8478 22.6735 32.3264C22.6735 33.7972 21.4784 35 19.9998 35Z" fill="#E535AB"/>
<path d="M19.9998 10.3473C18.5213 10.3473 17.3262 9.15222 17.3262 7.67367C17.3262 6.19513 18.5213 5.00003 19.9998 5.00003C21.4784 5.00003 22.6735 6.19513 22.6735 7.67367C22.6735 9.15222 21.4784 10.3473 19.9998 10.3473Z" fill="#E535AB"/>
</svg>
