<svg width="39" height="40" viewBox="0 0 39 40" fill="none" xmlns="http://www.w3.org/2000/svg">
<path d="M8.56011 32.0012L6.21289 4.99997H32.0044L29.6546 31.9971L19.0929 35L8.56011 32.0012Z" fill="#E44D26"/>
<path d="M19.1094 32.7047L27.6438 30.2778L29.6518 7.20764H19.1094V32.7047Z" fill="#F16529"/>
<path d="M19.1082 17.222H14.8355L14.5404 13.8307H19.1082V10.5193H11.0117L11.0891 11.4077L11.8826 20.5337H19.1082V17.222ZM19.1082 25.8225L19.0938 25.8266L15.4981 24.8304L15.2684 22.1896H12.0269L12.4792 27.3892L19.0934 29.2723L19.1082 29.2682V25.8225Z" fill="#EBEBEB"/>
<path d="M19.0977 17.222V20.5337H23.0735L22.6988 24.8285L19.0977 25.8254V29.2708L25.717 27.3892L25.7656 26.8298L26.5243 18.1114L26.6029 17.222H25.733H19.0977ZM19.0977 10.5193V13.8307H26.8969L26.9616 13.0867L27.1089 11.4077L27.1861 10.5193H19.0977Z" fill="white"/>
</svg>
