<svg width="39" height="40" viewBox="0 0 39 40" fill="none" xmlns="http://www.w3.org/2000/svg">
<path d="M5 5V35H35V5H5ZM20.8686 30.5631C20.4258 31.4629 19.5805 32.054 18.601 32.3394C17.096 32.685 15.6565 32.4879 14.5856 31.8452C13.869 31.4055 13.3093 30.7287 12.9294 29.949L15.2142 28.5498C15.2341 28.5582 15.2941 28.6666 15.3742 28.8068C15.6656 29.295 15.9169 29.6406 16.4108 29.8832C16.8961 30.0488 17.9614 30.1546 18.3728 29.3007C18.6241 28.8663 18.5442 27.47 18.5442 25.9251C18.5439 23.4975 18.5552 21.08 18.5552 18.68H21.3654C21.3654 21.32 21.3798 23.8203 21.3654 26.3965C21.3714 27.9757 21.5084 29.3835 20.8686 30.5631ZM32.5263 29.7692C31.5495 33.1105 26.1034 33.219 23.9271 31.0114C23.4673 30.4918 23.179 30.2204 22.9047 29.6206C24.0613 28.9554 24.0613 28.9554 25.1866 28.3042C25.7979 29.2438 26.3631 29.7606 27.38 29.972C28.7595 30.1405 30.1474 29.6665 29.8362 28.2013C29.5162 27.0046 27.0114 26.7135 25.3066 25.4338C23.576 24.2715 23.1704 21.4472 24.5926 19.8334C25.0666 19.2366 25.875 18.7911 26.7231 18.577L27.6082 18.4626C29.3077 18.4282 30.3699 18.877 31.1497 19.7478C31.3666 19.9676 31.5438 20.2047 31.875 20.7186C30.9697 21.2955 30.9726 21.29 29.6758 22.1295C29.3989 21.5329 28.9393 21.1585 28.4535 20.9958C27.6994 20.7673 26.7486 21.0157 26.5513 21.8125C26.4829 22.058 26.497 22.2865 26.6058 22.6921C26.9113 23.3888 27.9366 23.6917 28.8562 24.1143C31.5037 25.1881 32.3977 26.3394 32.6175 27.7098C32.8292 28.8896 32.5664 29.655 32.5263 29.7692V29.7692Z" fill="#F0DB4F"/>
</svg>
