<svg width="39" height="40" viewBox="0 0 39 40" fill="none" xmlns="http://www.w3.org/2000/svg">
<path d="M26.4135 16.9392C24.8107 9.96665 21.4698 8.11048 20.6176 6.79836C20.2662 6.22034 19.9549 5.61951 19.6858 5C19.6408 5.61941 19.5581 6.00964 19.0241 6.47936C17.952 7.4219 13.3988 11.0806 13.0156 19.0029C12.6586 26.3894 18.5226 30.9441 19.2974 31.4149C19.8931 31.7039 20.6186 31.4211 20.9725 31.1557C23.7993 29.2428 27.6615 24.143 26.4167 16.9392" fill="#10AA50"/>
<path d="M19.929 27.4816C19.7813 29.3099 19.6756 30.3722 19.3008 31.4169C19.3008 31.4169 19.5468 33.1575 19.7196 35.0013H20.331C20.4768 33.7029 20.6995 32.4141 20.9979 31.1413C20.2064 30.7573 19.9593 29.0859 19.929 27.4816Z" fill="#B8C4C2"/>
<path d="M20.9964 31.1423C20.1965 30.7779 19.9651 29.0714 19.9295 27.4816C20.1273 24.8591 20.185 22.228 20.1023 19.5995C20.0604 18.2203 20.1222 6.82518 19.7578 5.15689C20.007 5.72192 20.2942 6.26994 20.6174 6.79731C21.4696 8.11046 24.8115 9.96663 26.4133 16.9392C27.6613 24.1305 23.82 29.2169 20.9964 31.1423Z" fill="#12924F"/>
</svg>
