<svg width="40" height="40" viewBox="0 0 40 40" fill="none" xmlns="http://www.w3.org/2000/svg">
<path fill-rule="evenodd" clip-rule="evenodd" d="M22.6599 5.00708C22.4439 5.00708 22.242 5.05313 22.0578 5.11334C22.4527 5.37897 22.6688 5.7243 22.7786 6.11922C22.7856 6.17234 22.8016 6.2113 22.8087 6.2662C22.8157 6.3211 22.8264 6.35829 22.8264 6.40787C22.8583 7.08967 22.6493 7.17468 22.5005 7.57667C22.2756 8.09555 22.3376 8.65339 22.6068 9.09966C22.6314 9.1594 22.6623 9.21638 22.6989 9.26966C22.4049 7.31104 24.0394 7.0153 24.3405 6.40433C24.3635 5.86952 23.9226 5.51356 23.5737 5.26564C23.2408 5.06375 22.9362 5 22.6599 5V5.00708ZM25.1215 5.44981C25.0896 5.6269 25.1144 5.58086 25.1038 5.67472L25.0861 5.8766L25.0329 6.06255C25.0152 6.12453 24.994 6.18651 24.9709 6.24849L24.8859 6.42558C24.8629 6.45746 24.847 6.48756 24.824 6.51767L24.7779 6.58851L24.661 6.74258C24.615 6.78862 24.576 6.84352 24.5194 6.88425C24.4627 6.92498 24.4273 6.97634 24.3724 7.0153C24.2095 7.13926 24.0235 7.23135 23.8535 7.34823C23.8004 7.38719 23.7472 7.41906 23.6994 7.46511C23.647 7.50219 23.5978 7.54366 23.5524 7.58907C23.4993 7.63511 23.4604 7.68116 23.4108 7.73606C23.3612 7.79095 23.3258 7.837 23.2939 7.89013L23.1876 8.05305L23.1026 8.23014L23.0407 8.40723L22.9875 8.60203C22.9804 8.63391 22.9804 8.67287 22.9698 8.70297C22.9592 8.73308 22.9627 8.76495 22.9521 8.79506L22.945 8.98986C22.945 9.0359 22.945 9.08195 22.9521 9.13153C22.9521 9.19351 22.9592 9.2555 22.9751 9.32633C22.9911 9.39717 22.9982 9.4503 23.0141 9.51228L23.0761 9.69822C23.0938 9.73718 23.115 9.77614 23.1292 9.80448L21.3477 9.11382L20.4498 8.88361L19.961 8.76673C19.4949 8.67382 19.0244 8.60407 18.5514 8.55776C18.5337 8.55776 18.5284 8.55067 18.5124 8.55067L17.1258 8.47984L16.1111 8.5188C15.6382 8.55067 15.1654 8.61089 14.6944 8.68881L14.3455 8.75079L13.6477 8.90486L13.2989 8.99694L12.9659 9.14393L12.7109 9.26081C12.6932 9.26789 12.6791 9.26789 12.672 9.27852L12.4559 9.38477C12.4329 9.39186 12.417 9.40248 12.4028 9.40779L12.162 9.53176C12.1088 9.55478 12.0557 9.58489 12.0079 9.60968C11.9849 9.62739 11.9548 9.63978 11.937 9.64864L11.7352 9.76552C11.671 9.80095 11.609 9.83997 11.5492 9.8824L11.3951 9.98865L11.2251 10.1126L11.0941 10.2189C11.0764 10.226 11.0622 10.2419 11.0481 10.2507L10.9312 10.3517C10.9241 10.3694 10.9081 10.3747 10.8993 10.3836L10.7576 10.5146L10.6036 10.6616L10.4725 10.8033C10.4548 10.821 10.4335 10.8351 10.4194 10.8493C10.3778 10.8979 10.334 10.9445 10.2883 10.9892C10.2812 11.0069 10.2653 11.0122 10.2565 11.0282L10.0794 11.2141L9.66143 11.6161C9.51976 11.7401 9.37454 11.857 9.22756 11.9561L8.76358 12.2501C8.60951 12.3351 8.44481 12.413 8.27481 12.4803C8.11024 12.5503 7.9424 12.6124 7.77187 12.6663C7.44602 12.7371 7.11309 12.8682 6.8262 12.8912C6.76422 12.8912 6.69515 12.9089 6.6314 12.9142L6.4366 12.9602L6.25066 13.0311C6.18725 13.0562 6.12519 13.0846 6.06471 13.1161C6.01158 13.155 5.94783 13.1869 5.8947 13.2223C5.84158 13.2578 5.78845 13.3073 5.74063 13.3534C5.69282 13.3994 5.63438 13.4455 5.58656 13.4951L5.45552 13.6491C5.41656 13.7111 5.37051 13.766 5.33864 13.8262C5.29811 13.883 5.26199 13.9428 5.23061 14.0051L5.14561 14.207L5.07477 14.4088L5.03581 14.5948C5.01279 14.6869 5.01279 14.7807 5.00394 14.825C4.99508 14.8693 5.00394 14.9277 5.00394 14.9826C5.00243 15.0164 5.00481 15.0503 5.01102 15.0836C5.0181 15.1367 5.02873 15.1845 5.0429 15.2305L5.09602 15.3722C5.11904 15.4253 5.14915 15.4732 5.18103 15.5192L5.28197 15.6609L5.41302 15.7848C5.45841 15.8303 5.50758 15.8717 5.56 15.9088C5.74595 16.0717 5.79022 16.1249 6.03283 16.2488C6.07179 16.2718 6.11075 16.2878 6.1568 16.3108C6.17982 16.3338 6.17982 16.3409 6.18867 16.3568C6.19576 16.4188 6.2117 16.4808 6.22763 16.5428C6.24242 16.6066 6.26317 16.6688 6.28962 16.7287L6.3516 16.8704C6.35868 16.8881 6.36931 16.9023 6.37462 16.9094L6.46671 17.0794L6.58359 17.2423L6.71463 17.3893C6.76068 17.4353 6.80672 17.4743 6.86162 17.5203L7.01569 17.6372C7.06882 17.6762 7.12194 17.7081 7.1857 17.7382C7.24299 17.7711 7.3028 17.7996 7.36456 17.8232C7.4106 17.8462 7.4655 17.8621 7.51863 17.8763C7.57175 17.8905 7.61957 17.9082 7.64967 17.9152C7.62665 18.3332 7.6178 18.7299 7.68155 18.868C7.75239 19.0221 8.0924 18.5492 8.43242 18.0091C8.38637 18.5439 8.3545 19.1708 8.43242 19.355C8.51034 19.5392 8.9814 18.9441 9.38517 18.2783C14.875 17.0085 19.8867 20.8036 20.4126 26.1624C20.3117 25.3265 19.2828 24.8608 18.8099 24.9759C18.5797 25.5496 18.183 26.2863 17.5473 26.7415C17.6004 26.2279 17.5774 25.7037 17.4694 25.1919C17.2961 25.9048 16.9685 26.571 16.5095 27.1435C15.7746 27.1966 15.0397 26.8424 14.6501 26.3076C14.6182 26.2846 14.6111 26.2368 14.5881 26.2066L14.5261 26.0437C14.5031 25.9906 14.4872 25.9375 14.4801 25.8808C14.473 25.8241 14.473 25.7745 14.473 25.7108V25.5939C14.4801 25.5408 14.496 25.4877 14.512 25.431L14.5651 25.2681C14.597 25.2149 14.6182 25.1618 14.6572 25.1051C14.7882 24.751 14.7882 24.4322 14.5509 24.2551C14.5049 24.2232 14.4588 24.202 14.4039 24.1772C14.372 24.1701 14.3331 24.1542 14.303 24.1453L14.241 24.1223L14.0781 24.0833C14.0251 24.068 13.9703 24.0603 13.9152 24.0603C13.8589 24.0511 13.8021 24.0458 13.7451 24.0444C13.7062 24.0444 13.6672 24.0514 13.6283 24.0514C13.5708 24.051 13.5135 24.0587 13.4583 24.0745L13.2953 24.1046L13.1324 24.1577L12.9783 24.2285L12.8314 24.3065C11.025 25.4841 12.1053 28.2379 13.3343 29.0383C12.8703 29.1233 12.3957 29.2243 12.2664 29.3252C12.5852 29.5413 12.9323 29.7148 13.2971 29.86L14.5509 30.2142C15.1938 30.3559 15.8437 30.4002 16.5025 30.3612C18.1759 30.2387 19.7573 29.5486 20.9852 28.4051C22.213 27.2616 23.0138 25.7332 23.2549 24.0727L23.301 24.2746L23.3718 24.7085L23.4037 24.9174L23.4214 25.1476L23.4391 25.4027V25.5266C23.4391 25.5656 23.4462 25.6116 23.4462 25.6506C23.4462 25.6895 23.4391 25.7427 23.4391 25.7923V25.8985C23.4391 25.9516 23.432 25.9995 23.432 26.0526C23.432 26.0827 23.432 26.1146 23.4249 26.1535L23.4179 26.3235C23.4108 26.3465 23.4108 26.3696 23.4108 26.3944L23.3878 26.5715C23.3878 26.5945 23.3878 26.6175 23.3807 26.6423L23.3506 26.8672V26.8849L23.3045 27.101L23.2585 27.3312L23.1965 27.572L23.1345 27.8129L23.0566 28.0608L22.8866 28.5106L22.7945 28.7355L22.6882 28.9516C22.6812 28.9746 22.6705 28.9905 22.6652 29.0047C22.1463 30.0424 21.4026 30.935 20.4728 31.6292C20.4109 31.6681 20.3489 31.7142 20.2869 31.7602C20.2692 31.7779 20.2479 31.7832 20.2338 31.7992L20.0638 31.9161L20.0868 31.9621H20.0939L20.4197 31.9161H20.4268L21.0289 31.8098C21.082 31.8027 21.1458 31.7868 21.1989 31.7708L21.3052 31.7478L21.4681 31.7177L21.6098 31.6788C22.3836 31.4928 23.1327 31.236 23.8553 30.935C22.6245 32.6173 20.974 33.9703 19.0455 34.8611C19.9362 34.7991 20.827 34.6521 21.6841 34.4042C24.8045 33.4833 27.4307 31.3848 29.0033 28.5566C28.6844 30.3497 27.9733 32.0502 26.9207 33.5364C27.6716 33.0406 28.3605 32.4686 28.9891 31.8187C30.7225 30.0088 31.8602 27.7117 32.2494 25.2362C32.515 26.4581 32.5894 27.7225 32.4743 28.9693C38.0651 21.1702 32.9383 13.0842 30.7919 10.9556C30.7848 10.9379 30.7742 10.9325 30.7742 10.9166C30.7565 11.0087 30.7512 11.1026 30.7441 11.1946C30.7211 11.3717 30.6981 11.5435 30.6662 11.7135C30.6343 11.8835 30.5812 12.0535 30.5351 12.2271C30.4891 12.4006 30.4183 12.56 30.3492 12.7229C30.2801 12.8859 30.2022 13.0417 30.119 13.1958C30.0336 13.3472 29.9408 13.4944 29.8409 13.6367C29.74 13.7837 29.632 13.9236 29.5222 14.0547C29.4066 14.1895 29.2849 14.3189 29.1574 14.4425C29.0795 14.5133 29.0104 14.5735 28.9325 14.6373L28.7554 14.7914C28.6171 14.9011 28.4722 15.0022 28.3215 15.0942C28.1736 15.1896 28.0211 15.2776 27.8646 15.3581C27.7017 15.436 27.5388 15.505 27.3758 15.5741C27.2109 15.6365 27.0431 15.6909 26.8729 15.737C26.7029 15.7831 26.524 15.822 26.354 15.8539C26.184 15.8858 25.9998 15.9 25.8281 15.9159C25.7041 15.923 25.5801 15.9336 25.4739 15.9336C25.2968 15.9336 25.1197 15.9159 24.9479 15.9017C24.7761 15.8876 24.5937 15.8628 24.4202 15.8238C24.2444 15.792 24.0711 15.7482 23.9013 15.6928H23.8942C24.0642 15.675 24.2342 15.6609 24.4078 15.6308C24.5813 15.6007 24.7567 15.5599 24.9267 15.5139C25.0967 15.4678 25.2667 15.413 25.4296 15.351C25.5925 15.289 25.7625 15.2093 25.9184 15.1349C26.0771 15.0575 26.2319 14.9724 26.3824 14.8799C26.5293 14.779 26.6763 14.678 26.8162 14.57C26.955 14.462 27.0869 14.3455 27.2111 14.2211C27.3422 14.1042 27.4591 13.9732 27.576 13.8422C27.6928 13.7111 27.8009 13.5641 27.9018 13.4242C27.9195 13.4012 27.9337 13.3711 27.9478 13.3463L28.1728 12.9921C28.2578 12.838 28.3357 12.6822 28.403 12.5193C28.4703 12.3564 28.534 12.1934 28.5889 12.0234C28.6438 11.8534 28.681 11.6905 28.72 11.5205C28.7589 11.3505 28.7819 11.1716 28.7979 11.0016C28.8138 10.8316 28.828 10.6474 28.828 10.4757C28.828 10.3517 28.8209 10.2277 28.8103 10.1215C28.7926 9.94438 28.7713 9.7726 28.7483 9.6026C28.7175 9.4279 28.6785 9.25475 28.6314 9.08372C28.5783 8.92079 28.5252 8.75079 28.4614 8.58786C28.3977 8.42494 28.3197 8.26202 28.2454 8.10972C28.171 7.95742 28.0754 7.79981 27.9797 7.65282C27.8841 7.50584 27.7778 7.36594 27.6698 7.2278L27.3156 6.83289C27.2502 6.76662 27.1829 6.70225 27.1137 6.63986C26.7667 6.37016 26.4075 6.11665 26.037 5.88014C25.9839 5.85004 25.9361 5.82701 25.883 5.80222C25.628 5.6393 25.3871 5.55429 25.148 5.47637L25.1215 5.44981Z" fill="#EA2845"/>
</svg>
