<svg width="40" height="40" viewBox="0 0 40 40" fill="none" xmlns="http://www.w3.org/2000/svg">
<path d="M35.0001 20C35.0001 11.7157 28.2843 5 20 5C11.7157 5 5 11.7157 5 20C5 28.2843 11.7157 35.0001 20 35.0001C28.2843 35.0001 35.0001 28.2843 35.0001 20Z" fill="black"/>
<path d="M19.0176 5.0084C18.9532 5.01426 18.7479 5.03477 18.5631 5.04942C14.3021 5.43356 10.3108 7.73232 7.78297 11.2655C6.37532 13.2301 5.47508 15.4585 5.13488 17.8189C5.01465 18.6427 5 18.8861 5 20.0033C5 21.1204 5.01465 21.3638 5.13488 22.1877C5.95016 27.8203 9.95892 32.5528 15.3958 34.3062C16.3696 34.62 17.3959 34.834 18.5631 34.963C19.0176 35.0128 20.9824 35.0128 21.437 34.963C23.4517 34.7401 25.1584 34.2417 26.8417 33.3826C27.0997 33.2506 27.1497 33.2155 27.1144 33.1861C27.0909 33.1685 25.9913 31.6937 24.6716 29.9109L22.2728 26.6709L19.2669 22.2229C17.6129 19.7775 16.2523 17.7778 16.2405 17.7778C16.2288 17.7748 16.2171 19.7512 16.2112 22.1642C16.2023 26.3894 16.1995 26.5595 16.1467 26.6592C16.0705 26.8029 16.0118 26.8616 15.8886 26.926C15.7948 26.9729 15.7126 26.9817 15.2699 26.9817H14.7624L14.6277 26.8967C14.5441 26.8443 14.4762 26.7704 14.4312 26.6826L14.3695 26.5507L14.3754 20.6718L14.3842 14.79L14.4751 14.6756C14.522 14.6141 14.6217 14.535 14.6921 14.4967C14.8124 14.4382 14.8592 14.4323 15.3665 14.4323C15.9648 14.4323 16.0645 14.4557 16.2199 14.6258C16.264 14.6726 17.8915 17.124 19.8387 20.0766C21.786 23.0292 24.4488 27.0609 25.7566 29.0401L28.132 32.6378L28.2523 32.5587C29.3168 31.8667 30.4429 30.8815 31.3343 29.8551C33.2317 27.6766 34.4546 25.0202 34.8652 22.1878C34.9854 21.3638 35.0001 21.1204 35.0001 20.0034C35.0001 18.8861 34.9854 18.6428 34.8652 17.8189C34.0499 12.1863 30.0411 7.45376 24.6042 5.7004C23.6452 5.38961 22.6247 5.17551 21.4809 5.04649C21.1994 5.01719 19.261 4.98496 19.0176 5.0084ZM25.1584 14.0804C25.2991 14.1507 25.4135 14.2857 25.4545 14.4264C25.478 14.5026 25.4838 16.1329 25.478 19.8069L25.4693 25.0788L24.5397 23.6538L23.6071 22.2288V18.3965C23.6071 15.9188 23.6188 14.526 23.6364 14.4587C23.6832 14.2945 23.786 14.1655 23.9268 14.0892C24.047 14.0276 24.0909 14.0218 24.5514 14.0218C24.9854 14.0218 25.0616 14.0276 25.1584 14.0804Z" fill="white"/>
</svg>
