<svg width="40" height="40" viewBox="0 0 40 40" fill="none" xmlns="http://www.w3.org/2000/svg">
<path d="M32.8933 11.6473L21.3539 5.29474C20.6262 4.90175 19.6787 4.90175 18.9452 5.29474L7.2825 11.6473C6.53148 12.057 6 12.8268 6 13.6503V26.3386C6 27.162 6.54535 27.9321 7.29637 28.344L10.3777 30.0033C11.8504 30.691 12.3709 30.691 13.0411 30.691C15.2217 30.691 16.4673 29.4408 16.4673 27.2603V14.7337C16.4673 14.5568 16.3702 14.2936 16.187 14.2936H14.7156C14.5293 14.2936 14.1121 14.5568 14.1121 14.7335V27.26C14.1121 28.2266 13.19 29.1885 11.4665 28.3715L8.28265 26.6316C8.1717 26.5745 8.09346 26.4597 8.09346 26.3386V13.6503C8.09346 13.5307 8.23869 13.4106 8.35043 13.3493L19.9754 7.00762C20.084 6.94932 20.2436 6.94932 20.352 7.00762L31.8351 13.3478C31.945 13.4106 31.9063 13.5269 31.9063 13.6503V26.3386C31.9063 26.4597 31.9542 26.5775 31.8456 26.6358L20.309 32.9812C20.2101 33.0375 20.0874 33.0375 19.9791 32.9812L17.0202 31.3068C16.931 31.2577 16.825 31.24 16.7394 31.2854C15.9162 31.7278 15.7644 31.7866 14.9922 32.0404C14.8022 32.1032 14.5219 32.2121 15.0995 32.519L18.9719 34.6909C19.3416 34.8933 19.761 34.9999 20.1879 35C20.6176 35 21.0384 34.8943 21.4092 34.6909L32.8931 28.344C33.6441 27.9292 34 27.162 34 26.3386V13.6503C34 12.8268 33.6441 12.0589 32.8933 11.6473V11.6473ZM23.7708 24.328C20.7024 24.328 20.0264 23.5254 19.8011 22.0787C19.775 21.9229 19.6355 21.7366 19.4683 21.7366H17.9686C17.783 21.7366 17.6339 21.9499 17.6339 22.1251C17.6339 23.9774 18.696 26.2217 23.7711 26.2217C27.4449 26.2217 29.5511 24.8683 29.5511 22.4732C29.5511 20.0984 27.8588 19.4751 24.296 19.0281C20.6948 18.5768 20.3289 18.3488 20.3289 17.5489C20.3289 16.8894 20.6388 16.0099 23.3053 16.0099C25.6879 16.0099 26.5661 16.4947 26.9275 18.0173C26.9584 18.1605 27.0963 18.2632 27.252 18.2632H28.7577C28.8504 18.2632 28.9388 18.2277 29.0037 18.1649C29.0665 18.0974 29.0997 18.0128 29.0914 17.922C28.8582 15.3001 27.0209 14.0782 23.305 14.0782C19.9997 14.0782 18.028 15.4016 18.028 17.6199C18.028 20.0259 19.9898 20.6908 23.1627 20.9883C26.9584 21.3411 27.2536 21.8671 27.2536 22.5749C27.2536 23.8042 26.2126 24.328 23.7708 24.328Z" fill="#83CD29"/>
</svg>
