<svg width="40" height="40" viewBox="0 0 40 40" fill="none" xmlns="http://www.w3.org/2000/svg">
<path d="M20.0014 23.1279C21.5102 23.1279 22.7334 21.9047 22.7334 20.3959C22.7334 18.8872 21.5102 17.664 20.0014 17.664C18.4927 17.664 17.2695 18.8872 17.2695 20.3959C17.2695 21.9047 18.4927 23.1279 20.0014 23.1279Z" fill="#61DAFB"/>
<path d="M30.378 15.8907C29.8508 15.699 29.2997 15.5073 28.7245 15.3395C28.8683 14.7644 28.9881 14.1892 29.084 13.6381C29.5872 10.4748 29.0361 8.24614 27.5023 7.38343C27.047 7.11982 26.5438 7 25.9686 7C24.2911 7 22.1583 8.24614 20.0016 10.331C17.8448 8.24614 15.712 7 14.0345 7C13.4593 7 12.9561 7.11982 12.5008 7.38343C10.9671 8.2701 10.4159 10.4988 10.9191 13.6381C11.015 14.1892 11.1348 14.7644 11.2786 15.3395C10.7035 15.5073 10.1523 15.675 9.62508 15.8907C6.62956 17.041 5 18.6226 5 20.396C5 22.1693 6.65353 23.751 9.62508 24.9012C10.1523 25.0929 10.7035 25.2847 11.2786 25.4524C11.1348 26.0275 11.015 26.6027 10.9191 27.1539C10.4159 30.3171 10.9671 32.5458 12.5008 33.4085C12.9561 33.6721 13.4593 33.7919 14.0345 33.7919C15.7359 33.7919 17.8688 32.5458 20.0016 30.4609C22.1583 32.5458 24.2911 33.7919 25.9686 33.7919C26.5438 33.7919 27.047 33.6721 27.5023 33.4085C29.0361 32.5218 29.5872 30.2932 29.084 27.1539C28.9881 26.6027 28.8683 26.0275 28.7245 25.4524C29.2997 25.2847 29.8508 25.1169 30.378 24.9012C33.3736 23.751 35.0031 22.1693 35.0031 20.396C35.0031 18.6226 33.3736 17.041 30.378 15.8907V15.8907ZM26.8313 8.58163C27.8139 9.15677 28.1494 10.9301 27.742 13.4464C27.6701 13.9496 27.5503 14.4768 27.4065 15.028C26.1604 14.7404 24.8423 14.5487 23.4524 14.4289C22.6376 13.2786 21.7989 12.2482 20.9601 11.3135C22.7335 9.56417 24.5308 8.36596 25.9926 8.36596C26.3041 8.36596 26.5917 8.43785 26.8313 8.58163V8.58163ZM24.1474 22.7924C23.716 23.5592 23.2128 24.3261 22.6855 25.0929C21.7989 25.1648 20.9122 25.1888 20.0016 25.1888C19.067 25.1888 18.1803 25.1648 17.3176 25.0929C16.7904 24.3261 16.3111 23.5592 15.8797 22.7924C15.4244 22.0016 14.9931 21.1868 14.6096 20.396C14.9931 19.6052 15.4244 18.7904 15.8797 17.9996C16.3111 17.2327 16.8143 16.4658 17.3415 15.699C18.2282 15.6271 19.1149 15.6031 20.0255 15.6031C20.9601 15.6031 21.8468 15.6271 22.7095 15.699C23.2367 16.4658 23.716 17.2327 24.1474 17.9996C24.6027 18.7904 25.034 19.6052 25.4175 20.396C25.0101 21.1868 24.6027 21.9776 24.1474 22.7924ZM26.1364 22.0016C26.4959 22.8403 26.7834 23.6551 27.047 24.4699C26.2322 24.6616 25.3695 24.8054 24.4589 24.9252C24.7465 24.4699 25.058 23.9906 25.3216 23.4873C25.6092 22.9841 25.8728 22.4809 26.1364 22.0016ZM20.0016 28.4959C19.4264 27.8728 18.8752 27.2018 18.348 26.5068C18.8992 26.5308 19.4504 26.5548 20.0016 26.5548C20.5527 26.5548 21.1039 26.5308 21.6551 26.5068C21.1279 27.2018 20.5767 27.8728 20.0016 28.4959ZM15.5442 24.9012C14.6336 24.7814 13.7709 24.6376 12.9561 24.4459C13.2197 23.6551 13.5073 22.8163 13.8667 21.9776C14.1303 22.4569 14.3939 22.9601 14.6815 23.4394C14.9691 23.9666 15.2567 24.4219 15.5442 24.9012V24.9012ZM13.8667 18.7904C13.5073 17.9516 13.2197 17.1368 12.9561 16.3221C13.7709 16.1303 14.6336 15.9866 15.5442 15.8667C15.2567 16.3221 14.9451 16.8013 14.6815 17.3046C14.3939 17.8078 14.1303 18.3111 13.8667 18.7904V18.7904ZM20.0016 12.2961C20.5767 12.9191 21.1279 13.5901 21.6551 14.2851C21.1039 14.2611 20.5527 14.2372 20.0016 14.2372C19.4504 14.2372 18.8992 14.2611 18.348 14.2851C18.8752 13.5901 19.4264 12.9191 20.0016 12.2961ZM25.3216 17.3286L24.4589 15.8907C25.3695 16.0105 26.2322 16.1543 27.047 16.346C26.7834 17.1368 26.4959 17.9756 26.1364 18.8143C25.8728 18.3111 25.6092 17.8078 25.3216 17.3286ZM12.2611 13.4464C11.8537 10.9301 12.1892 9.15677 13.1718 8.58163C13.4114 8.43785 13.699 8.36596 14.0105 8.36596C15.4484 8.36596 17.2457 9.5402 19.043 11.3135C18.2043 12.2242 17.3655 13.2786 16.5507 14.4289C15.1608 14.5487 13.8428 14.7644 12.5966 15.028C12.4529 14.4768 12.357 13.9496 12.2611 13.4464V13.4464ZM6.34199 20.396C6.34199 19.2697 7.70795 18.0714 10.1044 17.1848C10.5836 16.9931 11.1109 16.8253 11.6381 16.6815C12.0215 17.8797 12.5008 19.1498 13.0759 20.4199C12.5008 21.69 11.9975 22.9362 11.6381 24.1344C8.33102 23.1758 6.34199 21.738 6.34199 20.396ZM13.1718 32.2103C12.1892 31.6352 11.8537 29.8618 12.2611 27.3456C12.333 26.8423 12.4529 26.3151 12.5966 25.7639C13.8428 26.0515 15.1608 26.2432 16.5507 26.363C17.3655 27.5133 18.2043 28.5438 19.043 29.4784C17.2696 31.2278 15.4723 32.426 14.0105 32.426C13.699 32.426 13.4114 32.3541 13.1718 32.2103ZM27.742 27.3456C28.1494 29.8618 27.8139 31.6352 26.8313 32.2103C26.5917 32.3541 26.3041 32.426 25.9926 32.426C24.5548 32.426 22.7574 31.2517 20.9601 29.4784C21.7989 28.5677 22.6376 27.5133 23.4524 26.363C24.8423 26.2432 26.1604 26.0275 27.4065 25.7639C27.5503 26.3151 27.6461 26.8423 27.742 27.3456V27.3456ZM29.8988 23.6072C29.4195 23.7989 28.8923 23.9666 28.3651 24.1104C27.9816 22.9122 27.5023 21.6421 26.9272 20.372C27.5023 19.1019 28.0056 17.8558 28.3651 16.6576C31.6721 17.6161 33.6611 19.054 33.6611 20.396C33.6611 21.5223 32.2712 22.7205 29.8988 23.6072Z" fill="#61DAFB"/>
</svg>
