<svg width="40" height="40" viewBox="0 0 40 40" fill="none" xmlns="http://www.w3.org/2000/svg">
<path d="M19.9992 23.1262C21.5079 23.1262 22.7308 21.9032 22.7308 20.3946C22.7308 18.8859 21.5079 17.6629 19.9992 17.6629C18.4906 17.6629 17.2676 18.8859 17.2676 20.3946C17.2676 21.9032 18.4906 23.1262 19.9992 23.1262Z" fill="#00A7D4"/>
<path d="M30.3753 15.8898C29.8481 15.6981 29.297 15.5064 28.7219 15.3387C28.8657 14.7636 28.9855 14.1885 29.0814 13.6374C29.5845 10.4744 29.0334 8.24601 27.5 7.38339C27.0447 7.11981 26.5415 7 25.9664 7C24.2891 7 22.1565 8.24601 20 10.3307C17.8434 8.24601 15.7109 7 14.0335 7C13.4585 7 12.9553 7.11981 12.5 7.38339C10.9665 8.26997 10.4153 10.4984 10.9185 13.6374C11.0144 14.1885 11.1342 14.7636 11.278 15.3387C10.7029 15.5064 10.1518 15.6741 9.6246 15.8898C6.62939 17.0399 5 18.6214 5 20.3946C5 22.1677 6.65335 23.7492 9.6246 24.8993C10.1518 25.091 10.7029 25.2827 11.278 25.4505C11.1342 26.0255 11.0144 26.6006 10.9185 27.1517C10.4153 30.3147 10.9665 32.5431 12.5 33.4057C12.9553 33.6693 13.4585 33.7891 14.0335 33.7891C15.7348 33.7891 17.8674 32.5431 20 30.4584C22.1565 32.5431 24.2891 33.7891 25.9664 33.7891C26.5415 33.7891 27.0447 33.6693 27.5 33.4057C29.0334 32.5191 29.5845 30.2907 29.0814 27.1517C28.9855 26.6006 28.8657 26.0255 28.7219 25.4505C29.297 25.2827 29.8481 25.115 30.3753 24.8993C33.3705 23.7492 34.9999 22.1677 34.9999 20.3946C34.9999 18.6214 33.3705 17.0399 30.3753 15.8898ZM26.8291 8.58147C27.8115 9.15655 28.1469 10.9297 27.7396 13.4457C27.6677 13.9489 27.5479 14.476 27.4041 15.0272C26.1581 14.7396 24.8402 14.5479 23.4505 14.4281C22.6358 13.278 21.7971 12.2476 20.9585 11.3131C22.7316 9.5639 24.5287 8.36582 25.9904 8.36582C26.3019 8.36582 26.5894 8.4377 26.8291 8.58147ZM24.1454 22.7907C23.714 23.5575 23.2108 24.3243 22.6837 25.091C21.7971 25.1629 20.9105 25.1869 20 25.1869C19.0655 25.1869 18.1789 25.1629 17.3163 25.091C16.7891 24.3243 16.3099 23.5575 15.8786 22.7907C15.4233 22 14.992 21.1853 14.6086 20.3946C14.992 19.6038 15.4233 18.7891 15.8786 17.9984C16.3099 17.2316 16.8131 16.4649 17.3402 15.6981C18.2268 15.6262 19.1134 15.6022 20.024 15.6022C20.9585 15.6022 21.845 15.6262 22.7077 15.6981C23.2348 16.4649 23.714 17.2316 24.1454 17.9984C24.6006 18.7891 25.0319 19.6038 25.4153 20.3946C25.008 21.1853 24.6006 21.976 24.1454 22.7907ZM26.1342 22C26.4936 22.8386 26.7811 23.6533 27.0447 24.468C26.23 24.6597 25.3674 24.8035 24.4569 24.9233C24.7444 24.468 25.0559 23.9888 25.3195 23.4856C25.607 22.9824 25.8706 22.4792 26.1342 22ZM20 28.4936C19.4249 27.8706 18.8738 27.1997 18.3466 26.5048C18.8978 26.5287 19.4489 26.5527 20 26.5527C20.5511 26.5527 21.1022 26.5287 21.6533 26.5048C21.1262 27.1997 20.5751 27.8706 20 28.4936ZM15.5431 24.8993C14.6326 24.7795 13.77 24.6358 12.9553 24.4441C13.2188 23.6533 13.5064 22.8147 13.8658 21.976C14.1294 22.4553 14.393 22.9585 14.6805 23.4377C14.968 23.9648 15.2556 24.4201 15.5431 24.8993ZM13.8658 18.7891C13.5064 17.9505 13.2188 17.1358 12.9553 16.3211C13.77 16.1294 14.6326 15.9856 15.5431 15.8658C15.2556 16.3211 14.9441 16.8003 14.6805 17.3035C14.393 17.8067 14.1294 18.3099 13.8658 18.7891ZM20 12.2955C20.5751 12.9185 21.1262 13.5895 21.6533 14.2843C21.1022 14.2604 20.5511 14.2364 20 14.2364C19.4489 14.2364 18.8978 14.2604 18.3466 14.2843C18.8738 13.5895 19.4249 12.9185 20 12.2955ZM25.3195 17.3275L24.4569 15.8898C25.3674 16.0096 26.23 16.1533 27.0447 16.345C26.7811 17.1358 26.4936 17.9744 26.1342 18.8131C25.8706 18.3099 25.607 17.8067 25.3195 17.3275ZM12.2604 13.4457C11.853 10.9297 12.1885 9.15655 13.1709 8.58147C13.4105 8.4377 13.6981 8.36582 14.0096 8.36582C15.4473 8.36582 17.2444 9.53994 19.0415 11.3131C18.2029 12.2236 17.3642 13.278 16.5495 14.4281C15.1597 14.5479 13.8418 14.7636 12.5958 15.0272C12.4521 14.476 12.3562 13.9489 12.2604 13.4457ZM6.34185 20.3946C6.34185 19.2684 7.70767 18.0703 10.1038 17.1837C10.5831 16.992 11.1102 16.8243 11.6374 16.6805C12.0208 17.8786 12.5 19.1486 13.0751 20.4185C12.5 21.6885 11.9968 22.9345 11.6374 24.1326C8.33067 23.1741 6.34185 21.7364 6.34185 20.3946ZM13.1709 32.2076C12.1885 31.6326 11.853 29.8594 12.2604 27.3434C12.3323 26.8402 12.4521 26.3131 12.5958 25.762C13.8418 26.0495 15.1597 26.2412 16.5495 26.361C17.3642 27.5112 18.2029 28.5415 19.0415 29.476C17.2684 31.2252 15.4712 32.4233 14.0096 32.4233C13.6981 32.4233 13.4105 32.3514 13.1709 32.2076ZM27.7396 27.3434C28.1469 29.8594 27.8115 31.6326 26.8291 32.2076C26.5894 32.3514 26.3019 32.4233 25.9904 32.4233C24.5527 32.4233 22.7556 31.2492 20.9585 29.476C21.7971 28.5655 22.6358 27.5112 23.4505 26.361C24.8402 26.2412 26.1581 26.0255 27.4041 25.762C27.5479 26.3131 27.6438 26.8402 27.7396 27.3434ZM29.8961 23.6054C29.4168 23.7971 28.8897 23.9648 28.3626 24.1086C27.9792 22.9105 27.5 21.6406 26.9249 20.3706C27.5 19.1006 28.0032 17.8546 28.3626 16.6565C31.6692 17.615 33.658 19.0527 33.658 20.3946C33.658 21.5208 32.2683 22.7188 29.8961 23.6054Z" fill="#00A7D4"/>
</svg>
