<svg width="40" height="40" viewBox="0 0 40 40" fill="none" xmlns="http://www.w3.org/2000/svg">
<mask id="mask0_1342_110" style="mask-type:luminance" maskUnits="userSpaceOnUse" x="5" y="7" width="30" height="27">
<path d="M35 7H5V33.8114H35V7Z" fill="white"/>
</mask>
<g mask="url(#mask0_1342_110)">
<path d="M33.8198 27.6705C32.2217 28.5423 23.9277 32.0999 22.1411 33.0764C20.3545 34.0529 19.3976 34.0251 18.0003 33.3285C16.6029 32.632 7.80699 28.9013 6.21295 28.1064C5.40978 27.7133 5 27.3778 5 27.0637V23.8992C5 23.8992 16.4902 21.2989 18.3445 20.598C20.1987 19.8972 20.8401 19.8801 22.4157 20.4826C23.9913 21.0852 33.4367 22.8629 34.9959 23.4527V26.5723C34.9959 26.897 34.6373 27.2133 33.8198 27.6684V27.6705Z" fill="#A32422"/>
<path d="M33.8199 24.521C32.2218 25.3885 23.9278 28.9461 22.1412 29.9055C20.3546 30.8649 19.3977 30.8563 18.0004 30.1619C16.603 29.4674 7.80709 25.7367 6.21304 24.9483C4.619 24.1599 4.58826 23.6086 6.15157 22.9718C7.71489 22.3351 16.4903 18.7518 18.3446 18.0467C20.1988 17.3416 20.8401 17.3267 22.4157 17.9313C23.9914 18.536 32.2505 21.9569 33.8015 22.5531C35.3525 23.1492 35.4242 23.6385 33.8199 24.5039V24.521Z" fill="#DC382C"/>
<path d="M33.8198 22.5168C32.2217 23.3864 23.9277 26.9419 22.1411 27.9013C20.3545 28.8607 19.4058 28.8521 18.0085 28.1534C16.6111 27.4547 7.80699 23.7454 6.21295 22.9527C5.40978 22.5552 5 22.2219 5 21.9057V18.7519C5 18.7519 16.4902 16.143 18.3445 15.4421C20.1987 14.7413 20.8401 14.7221 22.4157 15.3332C23.9913 15.9443 33.4367 17.7049 34.9959 18.2989V21.4185C34.9959 21.7433 34.6373 22.0681 33.8198 22.5168Z" fill="#A32422"/>
<path d="M33.8191 19.3524C32.221 20.2241 23.9271 23.7796 22.1404 24.739C20.3538 25.6984 19.3969 25.692 17.9996 24.9954C16.6022 24.2988 7.80631 20.5831 6.21226 19.7882C4.61822 18.9934 4.58953 18.4528 6.15079 17.8161C7.71206 17.1793 16.4895 13.5875 18.3438 12.9016C20.1981 12.2157 20.8394 12.173 22.415 12.7692C23.9906 13.3653 32.2497 16.8161 33.8007 17.3951C35.3517 17.9742 35.4234 18.4827 33.8191 19.3459V19.3524Z" fill="#DC382C"/>
<path d="M33.8198 17.1686C32.2217 18.0404 23.9277 21.598 22.1411 22.5553C20.3545 23.5125 19.4058 23.5061 18.0085 22.8117C16.6111 22.1172 7.80699 18.3972 6.21295 17.6045C5.40978 17.2113 5 16.8759 5 16.5596V13.3952C5 13.3952 16.4902 10.7948 18.3445 10.0961C20.1987 9.39739 20.8401 9.37602 22.4157 9.97858C23.9913 10.5811 33.4326 12.3589 34.9918 12.9529V16.0725C34.9959 16.4015 34.6373 16.722 33.8198 17.1686Z" fill="#A32422"/>
<path d="M33.8199 14.0084C32.2218 14.8631 23.9278 18.4421 22.1412 19.3929C20.3546 20.3437 19.3977 20.3416 18.0004 19.6493C16.603 18.957 7.80709 15.2327 6.21304 14.4421C4.619 13.6516 4.58826 13.1024 6.15157 12.4657C7.71489 11.8289 16.4903 8.23927 18.3446 7.5427C20.1988 6.84613 20.8401 6.82477 22.4157 7.42732C23.9914 8.02987 32.2505 11.455 33.8015 12.049C35.3525 12.643 35.4242 13.1366 33.8199 14.002V14.0084Z" fill="#DC382C"/>
</g>
<path d="M20.4662 9.5149L22.4454 8.83757L21.9086 10.1751L23.9227 10.9615L21.3267 11.2435L20.7428 12.705L19.8044 11.0747L16.8027 10.7927L19.0442 9.95079L18.3701 8.65594L20.4662 9.5149Z" fill="white"/>
<path d="M20.594 18.0468L15.7422 15.9464L22.6921 14.8332L20.594 18.0468Z" fill="white"/>
<path d="M13.8671 11.7734C15.916 11.7734 17.5818 12.4465 17.5818 13.2691C17.5818 14.0917 15.9119 14.7648 13.8671 14.7648C11.8223 14.7648 10.1504 14.0917 10.1504 13.2691C10.1504 12.4465 11.8161 11.7734 13.8671 11.7734Z" fill="white"/>
<path d="M27.002 11.361L31.1141 13.0554L27.0061 14.7498L27.002 11.361Z" fill="#741113"/>
<path d="M26.9999 11.361L27.004 14.7498L26.5574 14.9315L22.4473 13.2371L26.9999 11.361Z" fill="#AC2724"/>
</svg>
