<svg width="39" height="40" viewBox="0 0 39 40" fill="none" xmlns="http://www.w3.org/2000/svg">
<path d="M5 20V35H35V5H5V20ZM29.1752 18.8C29.8937 18.9667 30.5468 19.3425 31.052 19.88C31.3301 20.1695 31.5719 20.4919 31.772 20.84C31.772 20.8784 30.476 21.7544 29.6864 22.244C29.6576 22.2632 29.5424 22.1384 29.4152 21.9488C29.2711 21.7001 29.0662 21.4919 28.8199 21.3438C28.5735 21.1956 28.2937 21.1123 28.0064 21.1016C27.0968 21.0392 26.5112 21.5168 26.516 22.3016C26.5085 22.497 26.5532 22.6909 26.6456 22.8632C26.8448 23.2784 27.2168 23.5256 28.3832 24.0296C30.5312 24.9536 31.4504 25.5632 32.0216 26.4296C32.66 27.3896 32.8016 28.94 32.3696 30.0872C31.8896 31.3352 30.7136 32.1824 29.0504 32.4632C28.2908 32.5502 27.5232 32.5421 26.7656 32.4392C25.6093 32.2516 24.5427 31.7011 23.72 30.8672C23.444 30.5624 22.9064 29.768 22.94 29.7104C23.0276 29.6454 23.1199 29.5868 23.216 29.5352L24.32 28.9016L25.1816 28.4024L25.3616 28.6688C25.6654 29.1033 26.052 29.4736 26.4992 29.7584C27.4592 30.2624 28.7696 30.1928 29.4176 29.6096C29.6352 29.3959 29.7709 29.1127 29.8012 28.8092C29.8314 28.5057 29.7543 28.2013 29.5832 27.9488C29.3432 27.6152 28.8632 27.3344 27.5216 26.7488C25.9736 26.0816 25.3064 25.6688 24.6968 25.0112C24.3162 24.5773 24.0353 24.0653 23.8736 23.5112C23.753 22.8782 23.7352 22.2299 23.8208 21.5912C24.14 20.096 25.2608 19.052 26.8976 18.7424C27.6556 18.6486 28.4235 18.6696 29.1752 18.8048V18.8ZM22.1336 20.0576V21.2864H18.2384V32.3816H15.476V21.284H11.5712V20.084C11.5607 19.6709 11.5719 19.2575 11.6048 18.8456C11.6192 18.8264 14.0048 18.8168 16.8848 18.8216H22.1192L22.1336 20.0576Z" fill="#007ACC"/>
</svg>
