<svg width="40" height="40" viewBox="0 0 40 40" fill="none" xmlns="http://www.w3.org/2000/svg">
<path d="M27.3911 14.2529L20.2579 24.5665C20.1823 24.6758 20.073 24.7577 19.9464 24.7998C19.8199 24.8418 19.6831 24.8414 19.5569 24.7992C19.4306 24.7568 19.3217 24.6745 19.2468 24.5649C19.1718 24.4552 19.1349 24.3241 19.1415 24.1916L19.427 18.4975L14.8183 17.5201C14.7198 17.4992 14.628 17.4545 14.5511 17.3898C14.4741 17.3252 14.4144 17.2427 14.3773 17.1495C14.3401 17.0564 14.3265 16.9555 14.3379 16.8558C14.3492 16.7562 14.385 16.6608 14.4422 16.5782L21.5754 6.26462C21.651 6.15521 21.7604 6.07331 21.8869 6.03133C22.0135 5.98934 22.1502 5.98956 22.2765 6.03198C22.4028 6.07438 22.5117 6.15665 22.5866 6.26631C22.6616 6.37596 22.6985 6.50701 22.6918 6.63957L22.4064 12.3338L27.0151 13.3111C27.1135 13.332 27.2053 13.3767 27.2823 13.4413C27.3593 13.506 27.4189 13.5885 27.456 13.6817C27.4933 13.7748 27.5067 13.8757 27.4955 13.9753C27.4842 14.075 27.4483 14.1704 27.3911 14.253V14.2529Z" fill="#FCC72B"/>
<path d="M19.918 33.2195C19.7282 33.2197 19.5404 33.1826 19.3651 33.1099C19.1898 33.0373 19.0306 32.9307 18.8966 32.7965L12.1566 26.0569C11.887 25.7859 11.7358 25.419 11.7363 25.0366C11.7368 24.6543 11.8889 24.2876 12.1593 24.0173C12.4297 23.7469 12.7963 23.5947 13.1786 23.5942C13.561 23.5938 13.928 23.7448 14.1991 24.0144L19.918 29.7326L32.3766 17.2746C32.6482 17.0074 33.0144 16.8583 33.3953 16.8598C33.7765 16.8614 34.1415 17.0134 34.4107 17.2828C34.6801 17.5523 34.8323 17.9172 34.8339 18.2982C34.8353 18.6792 34.6862 19.0454 34.419 19.317L20.9391 32.7965C20.8051 32.9309 20.6459 33.0373 20.4707 33.1099C20.2955 33.1826 20.1076 33.2197 19.918 33.2195Z" fill="#729B1B"/>
<path d="M19.9159 33.2195C20.1056 33.2197 20.2935 33.1826 20.4687 33.1099C20.644 33.0373 20.8032 32.9307 20.9372 32.7965L27.6772 26.0569C27.9468 25.7859 28.098 25.419 28.0974 25.0366C28.0971 24.6543 27.9449 24.2876 27.6745 24.0173C27.404 23.7469 27.0375 23.5947 26.6552 23.5942C26.2728 23.5938 25.9059 23.7448 25.6347 24.0144L19.9159 29.7326L7.4572 17.2746C7.1856 17.0074 6.81941 16.8583 6.43841 16.8598C6.0574 16.8614 5.69243 17.0134 5.42302 17.2828C5.15361 17.5523 5.00156 17.9172 5.00001 18.2982C4.99846 18.6792 5.14753 19.0454 5.41474 19.317L18.8947 32.7965C19.0287 32.9309 19.1879 33.0373 19.3631 33.1099C19.5383 33.1826 19.7262 33.2197 19.9159 33.2195Z" fill="#729B1B" fill-opacity="0.5"/>
</svg>
