<svg width="40" height="40" viewBox="0 0 40 40" fill="none" xmlns="http://www.w3.org/2000/svg">
<g clip-path="url(#clip0_1349_86)">
<path d="M34.2414 9.42014L20.7782 33.8523C20.5002 34.3568 19.786 34.3597 19.5039 33.8578L5.77368 9.42249C5.4663 8.87546 5.92723 8.21286 6.53805 8.32366L20.0157 10.7685C20.1017 10.7841 20.1897 10.7839 20.2757 10.768L33.4715 8.32716C34.0803 8.21456 34.5434 8.87203 34.2414 9.42014Z" fill="url(#paint0_linear_1349_86)"/>
<path d="M26.4361 5.11691L16.4729 7.09816C16.3091 7.13072 16.1879 7.27156 16.178 7.44057L15.5651 17.9453C15.5507 18.1927 15.7746 18.3848 16.0126 18.3291L18.7865 17.6794C19.046 17.6186 19.2805 17.8506 19.2272 18.1155L18.403 22.211C18.3476 22.4867 18.6026 22.7224 18.8678 22.6406L20.5811 22.1123C20.8467 22.0305 21.1019 22.2669 21.0457 22.5427L19.7361 28.9759C19.6541 29.3783 20.1815 29.5977 20.4015 29.2527L20.5484 29.0223L28.667 12.5796C28.8029 12.3043 28.5685 11.9904 28.2706 12.0487L25.4153 12.608C25.147 12.6605 24.9187 12.4069 24.9944 12.1405L26.858 5.58418C26.9338 5.31731 26.7047 5.0635 26.4361 5.11691Z" fill="url(#paint1_linear_1349_86)"/>
</g>
<defs>
<linearGradient id="paint0_linear_1349_86" x1="5.43844" y1="7.45048" x2="22.5163" y2="30.3041" gradientUnits="userSpaceOnUse">
<stop stop-color="#41D1FF"/>
<stop offset="1" stop-color="#BD34FE"/>
</linearGradient>
<linearGradient id="paint1_linear_1349_86" x1="19.2424" y1="5.65482" x2="22.3622" y2="26.7435" gradientUnits="userSpaceOnUse">
<stop stop-color="#FFEA83"/>
<stop offset="0.0833333" stop-color="#FFDD35"/>
<stop offset="1" stop-color="#FFA800"/>
</linearGradient>
<clipPath id="clip0_1349_86">
<rect width="30" height="30" fill="white" transform="translate(5 5)"/>
</clipPath>
</defs>
</svg>
