<svg width="40" height="40" viewBox="0 0 40 40" fill="none" xmlns="http://www.w3.org/2000/svg">
<path fill-rule="evenodd" clip-rule="evenodd" d="M31.3944 1.47643C32.3398 0.531086 33.622 0 34.959 0C36.2959 0 37.5781 0.531086 38.5235 1.47643L37.5138 2.48623L38.5236 1.47649C39.4689 2.42188 40 3.70409 40 5.04104C40 6.37335 39.4726 7.65128 38.5334 8.59572L18.9881 28.8547C18.6094 29.2472 18.0401 29.3897 17.5212 29.2219C17.0022 29.0541 16.6242 28.6053 16.547 28.0654C16.463 27.4774 16.0795 26.7523 15.4233 26.1002C14.7728 25.4537 13.9839 25.0099 13.2796 24.8665C12.7779 24.7643 12.3694 24.4014 12.2088 23.9153C12.0481 23.4292 12.1601 22.8943 12.5021 22.5134L31.3416 1.53214C31.3587 1.5131 31.3763 1.49453 31.3944 1.47643ZM36.5043 3.49576C36.0944 3.08593 35.5386 2.85569 34.959 2.85569C34.3906 2.85569 33.845 3.07711 33.4375 3.4722L15.9717 22.9236C16.5086 23.2512 17.0034 23.6445 17.4363 24.0746C17.806 24.4421 18.1501 24.8562 18.4444 25.3053L36.4863 6.60461C36.4891 6.60178 36.4918 6.59896 36.4946 6.59615C36.4978 6.59288 36.501 6.58962 36.5042 6.58638C36.9141 6.17652 37.1443 5.62065 37.1443 5.04104C37.1443 4.46146 36.9141 3.90561 36.5043 3.49576ZM3.21265 32.0451C3.21265 28.5685 5.98328 25.7216 9.45947 25.7216C12.9357 25.7216 15.7063 28.5685 15.7063 32.0451C15.7063 36.4187 12.2128 40 7.85314 40C4.96912 40 2.02457 38.5082 0.281335 36.1597C-0.0402469 35.7264 -0.0901531 35.1489 0.152339 34.6669C0.39483 34.1849 0.888301 33.8808 1.42785 33.8808C1.74379 33.8808 2.21899 33.7332 2.60618 33.3984C2.95988 33.0925 3.21265 32.6576 3.21265 32.0451ZM9.45947 28.5773C7.60266 28.5773 6.06834 30.1031 6.06834 32.0451C6.06834 33.834 5.17558 35.116 4.04871 35.883C5.1749 36.6773 6.54334 37.1443 7.85314 37.1443C10.5935 37.1443 12.8506 34.884 12.8506 32.0451C12.8506 30.1031 11.3163 28.5773 9.45947 28.5773Z" fill="white"/>
</svg>
