<svg width="12" height="12" viewBox="0 0 12 12" fill="none" xmlns="http://www.w3.org/2000/svg">
<path d="M4 3.5V7.5C4 7.76522 4.10536 8.01957 4.29289 8.20711C4.48043 8.39464 4.73478 8.5 5 8.5H8M4 3.5V2.5C4 2.23478 4.10536 1.98043 4.29289 1.79289C4.48043 1.60536 4.73478 1.5 5 1.5H7.293C7.4256 1.50003 7.55275 1.55273 7.6465 1.6465L9.8535 3.8535C9.94728 3.94725 9.99997 4.0744 10 4.207V7.5C10 7.76522 9.89464 8.01957 9.70711 8.20711C9.51957 8.39464 9.26522 8.5 9 8.5H8M4 3.5H3C2.73478 3.5 2.48043 3.60536 2.29289 3.79289C2.10536 3.98043 2 4.23478 2 4.5V9.5C2 9.76522 2.10536 10.0196 2.29289 10.2071C2.48043 10.3946 2.73478 10.5 3 10.5H7C7.26522 10.5 7.51957 10.3946 7.70711 10.2071C7.89464 10.0196 8 9.76522 8 9.5V8.5" stroke="#D9D9D9" stroke-linecap="round" stroke-linejoin="round"/>
</svg>
