<svg width="12" height="12" viewBox="0 0 12 12" fill="none" xmlns="http://www.w3.org/2000/svg">
<path d="M6 0C2.6865 0 0 2.72857 0 6.09395C0 8.94947 1.936 11.3388 4.546 12C4.518 11.9177 4.5 11.8223 4.5 11.7039V10.6624C4.2565 10.6624 3.8485 10.6624 3.746 10.6624C3.3355 10.6624 2.9705 10.4831 2.7935 10.15C2.597 9.77977 2.563 9.21354 2.076 8.8672C1.9315 8.75193 2.0415 8.6204 2.208 8.63817C2.5155 8.72653 2.7705 8.94084 3.0105 9.25874C3.2495 9.57715 3.362 9.64926 3.8085 9.64926C4.025 9.64926 4.349 9.63656 4.654 9.58781C4.818 9.16479 5.1015 8.77529 5.448 8.59145C3.45 8.38273 2.4965 7.37317 2.4965 6.00254C2.4965 5.41244 2.744 4.84164 3.1645 4.36073C3.0265 3.88337 2.853 2.90986 3.2175 2.53915C4.1165 2.53915 4.66 3.13127 4.7905 3.29124C5.2385 3.13534 5.7305 3.04697 6.2475 3.04697C6.7655 3.04697 7.2595 3.13534 7.7085 3.29226C7.8375 3.13331 8.3815 2.53915 9.2825 2.53915C9.6485 2.91037 9.473 3.88794 9.3335 4.36428C9.7515 4.84418 9.9975 5.41346 9.9975 6.00254C9.9975 7.37215 9.0455 8.38121 7.0505 8.59094C7.5995 8.88193 8 9.69954 8 10.3155V11.7039C8 11.7568 7.9885 11.7948 7.9825 11.84C10.3205 11.0077 12 8.75294 12 6.09395C12 2.72857 9.3135 0 6 0Z" fill="#D9D9D9"/>
</svg>
