<svg width="12" height="13" viewBox="0 0 12 13" fill="none" xmlns="http://www.w3.org/2000/svg">
<path d="M6 0.5C2.69165 0.5 0 3.19139 0 6.5C0 9.80861 2.69165 12.5 6 12.5C9.30835 12.5 12 9.80861 12 6.5C12 3.19139 9.30835 0.5 6 0.5ZM4.17391 9.1087H3.13043V5.19565H4.17391V9.1087ZM3.65217 4.41304C3.36391 4.41304 3.13043 4.17957 3.13043 3.8913C3.13043 3.60304 3.36391 3.36957 3.65217 3.36957C3.94043 3.36957 4.17391 3.60304 4.17391 3.8913C4.17391 4.17957 3.94043 4.41304 3.65217 4.41304ZM9.13043 9.1087H8.08696V7.80435V7.15217C8.08696 6.65 7.67609 6.23913 7.17391 6.23913C6.67174 6.23913 6.26087 6.65 6.26087 7.15217V9.1087H5.21739V5.19565H6.26087V5.66939C6.56556 5.3767 6.97878 5.19565 7.43478 5.19565C8.3713 5.19565 9.13043 5.95478 9.13043 6.8913V9.1087Z" fill="#D9D9D9"/>
</svg>
