<svg width="75" height="75" viewBox="0 0 75 75" fill="none" xmlns="http://www.w3.org/2000/svg">
<path d="M37.5 0C16.8231 0 0 16.8231 0 37.5C0 58.1769 16.8231 75 37.5 75C58.1769 75 75 58.1769 75 37.5C75 16.8231 58.1769 0 37.5 0ZM27.8827 11.5385H47.1116C56.1261 11.5385 63.4615 18.8712 63.4615 27.8827V47.1116C63.4615 56.1261 56.1288 63.4615 47.1173 63.4615H27.8884C18.8739 63.4615 11.5385 56.1288 11.5385 47.1173V27.8884C11.5385 18.8739 18.8712 11.5385 27.8827 11.5385ZM27.8827 17.3077C22.0529 17.3077 17.3077 22.0557 17.3077 27.8884V47.1173C17.3077 52.9471 22.0557 57.6923 27.8884 57.6923H47.1173C52.9471 57.6923 57.6923 52.9443 57.6923 47.1116V27.8827C57.6923 22.0529 52.9443 17.3077 47.1116 17.3077H27.8827ZM50.9653 22.1135C52.0268 22.1135 52.8865 22.9732 52.8865 24.0347C52.8865 25.0962 52.0268 25.9615 50.9653 25.9615C49.9038 25.9615 49.0385 25.0962 49.0385 24.0347C49.0385 22.9732 49.9038 22.1135 50.9653 22.1135ZM37.5 23.0769C45.4529 23.0769 51.9231 29.5471 51.9231 37.5C51.9231 45.4529 45.4529 51.9231 37.5 51.9231C29.5471 51.9231 23.0769 45.4529 23.0769 37.5C23.0769 29.5471 29.5471 23.0769 37.5 23.0769ZM37.5 28.8462C35.2049 28.8462 33.0037 29.7579 31.3808 31.3808C29.7579 33.0037 28.8462 35.2049 28.8462 37.5C28.8462 39.7951 29.7579 41.9963 31.3808 43.6192C33.0037 45.2421 35.2049 46.1538 37.5 46.1538C39.7951 46.1538 41.9963 45.2421 43.6192 43.6192C45.2421 41.9963 46.1538 39.7951 46.1538 37.5C46.1538 35.2049 45.2421 33.0037 43.6192 31.3808C41.9963 29.7579 39.7951 28.8462 37.5 28.8462Z" fill="#5E646D"/>
</svg>
