<svg width="75" height="76" viewBox="0 0 75 76" fill="none" xmlns="http://www.w3.org/2000/svg">
<path d="M37.5 0C16.8231 0 0 16.8264 0 37.5075C0 58.1886 16.8231 75.015 37.5 75.015C58.1769 75.015 75 58.1886 75 37.5075C75 16.8264 58.1769 0 37.5 0ZM27.8827 11.5408H47.1116C56.1261 11.5408 63.4615 18.875 63.4615 27.8883V47.1211C63.4615 56.1373 56.1288 63.4742 47.1173 63.4742H27.8884C18.8739 63.4742 11.5385 56.14 11.5385 47.1267V27.894C11.5385 18.8777 18.8712 11.5408 27.8827 11.5408ZM27.8827 17.3112C22.0529 17.3112 17.3077 22.0601 17.3077 27.894V47.1267C17.3077 52.9577 22.0557 57.7038 27.8884 57.7038H47.1173C52.9471 57.7038 57.6923 52.9549 57.6923 47.1211V27.8883C57.6923 22.0573 52.9443 17.3112 47.1116 17.3112H27.8827ZM50.9653 22.1179C52.0268 22.1179 52.8865 22.9778 52.8865 24.0395C52.8865 25.1013 52.0268 25.9667 50.9653 25.9667C49.9038 25.9667 49.0385 25.1013 49.0385 24.0395C49.0385 22.9778 49.9038 22.1179 50.9653 22.1179ZM37.5 23.0815C45.4529 23.0815 51.9231 29.553 51.9231 37.5075C51.9231 45.462 45.4529 51.9335 37.5 51.9335C29.5471 51.9335 23.0769 45.462 23.0769 37.5075C23.0769 29.553 29.5471 23.0815 37.5 23.0815ZM37.5 28.8519C35.2049 28.8519 33.0037 29.7638 31.3808 31.3871C29.7579 33.0103 28.8462 35.2119 28.8462 37.5075C28.8462 39.8031 29.7579 42.0047 31.3808 43.6279C33.0037 45.2512 35.2049 46.1631 37.5 46.1631C39.7951 46.1631 41.9963 45.2512 43.6192 43.6279C45.2421 42.0047 46.1538 39.8031 46.1538 37.5075C46.1538 35.2119 45.2421 33.0103 43.6192 31.3871C41.9963 29.7638 39.7951 28.8519 37.5 28.8519Z" fill="black"/>
</svg>
