<svg width="75" height="75" viewBox="0 0 75 75" fill="none" xmlns="http://www.w3.org/2000/svg">
<path d="M37.5 0C16.8228 0 0 16.8212 0 37.5C0 58.1788 16.8228 75 37.5 75C58.1772 75 75 58.1788 75 37.5C75 16.8212 58.1772 0 37.5 0ZM26.087 53.8043H19.5652V29.3478H26.087V53.8043ZM22.8261 24.4565C21.0245 24.4565 19.5652 22.9973 19.5652 21.1957C19.5652 19.394 21.0245 17.9348 22.8261 17.9348C24.6277 17.9348 26.087 19.394 26.087 21.1957C26.087 22.9973 24.6277 24.4565 22.8261 24.4565ZM57.0652 53.8043H50.5435V45.6522V41.5761C50.5435 38.4375 47.9755 35.8696 44.837 35.8696C41.6984 35.8696 39.1304 38.4375 39.1304 41.5761V53.8043H32.6087V29.3478H39.1304V32.3087C41.0348 30.4793 43.6174 29.3478 46.4674 29.3478C52.3207 29.3478 57.0652 34.0924 57.0652 39.9457V53.8043Z" fill="#5E646D"/>
</svg>
