<svg width="75" height="75" viewBox="0 0 75 75" fill="none" xmlns="http://www.w3.org/2000/svg">
<path d="M37.5 0C16.8212 0 0 16.8212 0 37.5C0 58.1788 16.8212 75 37.5 75C58.1788 75 75 58.1788 75 37.5C75 16.8212 58.1788 0 37.5 0ZM55.8212 30.2022C55.8375 30.587 55.8473 30.9783 55.8473 31.3712C55.8473 43.3027 46.7609 57.0652 30.1484 57.0652C25.0484 57.0652 20.2989 55.5701 16.3043 53.0071C17.0103 53.0919 17.7261 53.1326 18.4582 53.1326C22.6908 53.1326 26.5859 51.6913 29.6739 49.2685C25.7217 49.1967 22.3891 46.5799 21.2364 42.9962C21.7891 43.1022 22.3549 43.1592 22.9386 43.1592C23.762 43.1592 24.5609 43.05 25.3158 42.8413C21.1875 42.0081 18.075 38.3625 18.075 33.9848C18.075 33.9457 18.075 33.9082 18.075 33.8707C19.2929 34.5473 20.6837 34.9549 22.1658 35.0022C19.7397 33.3799 18.1484 30.6179 18.1484 27.4842C18.1484 25.8293 18.5918 24.2788 19.3696 22.9418C23.8255 28.4054 30.481 32.0005 37.9859 32.3788C37.831 31.7168 37.7495 31.0288 37.7495 30.3212C37.7495 25.3337 41.7929 21.2902 46.7821 21.2902C49.3793 21.2902 51.7255 22.3859 53.3723 24.1418C55.4283 23.7375 57.3636 22.9859 59.1081 21.9522C58.4348 24.0587 57.0016 25.8293 55.1348 26.9478C56.9641 26.7261 58.7022 26.2435 60.3245 25.5245C59.1147 27.3359 57.5837 28.9288 55.8212 30.2022Z" fill="#5E646D"/>
</svg>
