<svg width="58" height="40" viewBox="0 0 58 40" fill="none" xmlns="http://www.w3.org/2000/svg">
<path fill-rule="evenodd" clip-rule="evenodd" d="M8.58768 3.61905C7.55303 3.61905 6.71429 4.43629 6.71429 5.4444V32.5556C6.71429 33.5637 7.55303 34.381 8.58768 34.381H49.4123C50.447 34.381 51.2857 33.5637 51.2857 32.5556V5.4444C51.2857 4.43629 50.447 3.61905 49.4123 3.61905H8.58768ZM3 5.4444C3 2.43754 5.50169 0 8.58768 0H49.4123C52.4983 0 55 2.43754 55 5.4444V32.5556C55 35.5625 52.4983 38 49.4123 38H8.58768C5.50169 38 3 35.5625 3 32.5556V5.4444Z" fill="white"/>
<path fill-rule="evenodd" clip-rule="evenodd" d="M0 38C0 36.8954 0.811484 36 1.8125 36H56.1875C57.1885 36 58 36.8954 58 38C58 39.1046 57.1885 40 56.1875 40H1.8125C0.811484 40 0 39.1046 0 38Z" fill="white"/>
</svg>
