<svg width="57" height="30" viewBox="0 0 57 30" fill="none" xmlns="http://www.w3.org/2000/svg">
<path fill-rule="evenodd" clip-rule="evenodd" d="M18.5299 0.640329C19.2209 1.41965 19.1409 2.6042 18.3512 3.2861L4.78533 15L18.3512 26.7139C19.1409 27.3958 19.2209 28.5804 18.5299 29.3597C17.8389 30.139 16.6386 30.218 15.8488 29.5361L0.648841 16.4111C0.236513 16.055 0 15.5407 0 15C0 14.4593 0.236513 13.945 0.648841 13.5889L15.8488 0.463944C16.6386 -0.217959 17.8389 -0.138989 18.5299 0.640329ZM38.4701 0.640329C39.1611 -0.138989 40.3614 -0.217959 41.1512 0.463944L56.3512 13.5889C56.7635 13.945 57 14.4593 57 15C57 15.5407 56.7635 16.055 56.3512 16.4111L41.1512 29.5361C40.3614 30.218 39.1611 30.139 38.4701 29.3597C37.7791 28.5804 37.8591 27.3958 38.6488 26.7139L52.2147 15L38.6488 3.2861C37.8591 2.6042 37.7791 1.41965 38.4701 0.640329Z" fill="white"/>
</svg>
