<svg width="24" height="27" viewBox="0 0 24 27" fill="none" xmlns="http://www.w3.org/2000/svg">
<path fill-rule="evenodd" clip-rule="evenodd" d="M6.80952 6.44444H9.2585H9.53051C9.35971 6.21232 9.2585 5.92378 9.2585 5.61111C9.2585 4.84405 9.86764 4.22222 10.619 4.22222C11.3705 4.22222 11.9796 4.84405 11.9796 5.61111C11.9796 5.92378 11.8784 6.21232 11.7076 6.44444H11.9796H14.4286C15.3303 6.44444 16.0612 7.19063 16.0612 8.11111V18.1111C16.0612 19.0316 15.3303 19.7778 14.4286 19.7778H6.80952C5.90783 19.7778 5.17687 19.0316 5.17687 18.1111V8.11111C5.17687 7.19063 5.90783 6.44444 6.80952 6.44444ZM14.4286 4.22222H13.5578C13.3057 2.95431 12.2076 2 10.8912 2H10.3469C9.0305 2 7.9324 2.95431 7.68028 4.22222H6.80952C4.70558 4.22222 3 5.96334 3 8.11111V18.1111C3 20.2589 4.70558 22 6.80952 22H14.4286C16.5325 22 18.2381 20.2589 18.2381 18.1111V8.11111C18.2381 5.96334 16.5325 4.22222 14.4286 4.22222Z" fill="black"/>
<path fill-rule="evenodd" clip-rule="evenodd" d="M7 20.8V25H11.2V23.25H8.75V20.8H7ZM16.8 25H21V20.8H19.25V23.25H16.8V25ZM21 12.45V8.25H16.8V10H19.25V12.45H21Z" fill="black"/>
</svg>
