<svg width="75" height="76" viewBox="0 0 75 76" fill="none" xmlns="http://www.w3.org/2000/svg">
<path d="M37.5 0C16.7906 0 0 17.0569 0 38.0948C0 55.9454 12.1 70.8817 28.4125 75.015C28.2375 74.5007 28.125 73.9039 28.125 73.1642V66.6532C26.6031 66.6532 24.0531 66.6532 23.4125 66.6532C20.8469 66.6532 18.5656 65.5326 17.4594 63.4501C16.2312 61.1358 16.0187 57.5962 12.975 55.4311C12.0719 54.7105 12.7594 53.8883 13.8 53.9994C15.7219 54.5517 17.3156 55.8914 18.8156 57.8787C20.3094 59.8691 21.0125 60.3199 23.8031 60.3199C25.1562 60.3199 27.1812 60.2406 29.0875 59.9358C30.1125 57.2914 31.8844 54.8565 34.05 53.7073C21.5625 52.4026 15.6031 46.0915 15.6031 37.5234C15.6031 33.8345 17.15 30.2663 19.7781 27.26C18.9156 24.2759 17.8313 18.1903 20.1094 15.8728C25.7281 15.8728 29.125 19.5744 29.9406 20.5744C32.7406 19.5998 35.8156 19.0474 39.0469 19.0474C42.2844 19.0474 45.3719 19.5998 48.1781 20.5807C48.9844 19.5871 52.3844 15.8728 58.0156 15.8728C60.3031 18.1934 59.2062 24.3045 58.3344 27.2822C60.9469 30.2822 62.4844 33.8409 62.4844 37.5234C62.4844 46.0852 56.5344 52.393 44.0656 53.7041C47.4969 55.5232 50 60.6342 50 64.485V73.1642C50 73.4944 49.9281 73.7325 49.8906 74.015C64.5031 68.8119 75 54.7168 75 38.0948C75 17.0569 58.2094 0 37.5 0Z" fill="black"/>
</svg>
