<svg width="67" height="75" viewBox="0 0 67 75" fill="none" xmlns="http://www.w3.org/2000/svg">
<path d="M66.1826 1.04236C65.5882 0.378756 64.7403 0 63.8517 0H3.25942C2.37084 0 1.52293 0.378756 0.928463 1.04236C0.333992 1.70597 0.0524 2.59182 0.149393 3.47454L7.039 65.5248C7.17667 66.7863 8.06838 67.8412 9.28861 68.1887L32.692 74.8779C32.9736 74.9593 33.2646 75 33.5524 75C33.8403 75 34.1313 74.9593 34.4128 74.8779L57.8162 68.1887C59.0365 67.8412 59.925 66.7863 60.0658 65.5248L66.9586 3.47454C67.0587 2.59182 66.7771 1.70597 66.1826 1.04236ZM50.814 31.5338L49.4185 54.3374L33.6557 59.4929L17.8928 54.3374L17.2952 43.4318H25.2736L25.4739 48.39L33.6557 51.1665L41.8375 48.39L42.4351 39.4689H24.8763L24.4789 31.5369H42.8356L43.4332 23.605H15.8966L15.299 15.6699H51.8121L50.814 31.5338Z" fill="#29313D"/>
<path d="M66.1826 1.04236C65.5882 0.378756 64.7403 0 63.8517 0H3.25942C2.37084 0 1.52293 0.378756 0.928463 1.04236C0.333992 1.70597 0.0524 2.59182 0.149393 3.47454L7.039 65.5248C7.17667 66.7863 8.06838 67.8412 9.28861 68.1887L32.692 74.8779C32.9736 74.9593 33.2646 75 33.5524 75C33.8403 75 34.1313 74.9593 34.4128 74.8779L57.8162 68.1887C59.0365 67.8412 59.925 66.7863 60.0658 65.5248L66.9586 3.47454C67.0587 2.59182 66.7771 1.70597 66.1826 1.04236ZM50.814 31.5338L49.4185 54.3374L33.6557 59.4929L17.8928 54.3374L17.2952 43.4318H25.2736L25.4739 48.39L33.6557 51.1665L41.8375 48.39L42.4351 39.4689H24.8763L24.4789 31.5369H42.8356L43.4332 23.605H15.8966L15.299 15.6699H51.8121L50.814 31.5338Z" fill="white" fill-opacity="0.25"/>
</svg>
