<svg width="76" height="75" viewBox="0 0 76 75" fill="none" xmlns="http://www.w3.org/2000/svg">
<path fill-rule="evenodd" clip-rule="evenodd" d="M0.260986 0V75H75.261V0H0.260986ZM55.7924 60.8899C52.4695 60.8899 50.9008 58.6401 49.4573 56.292L44.1631 59.812C46.1406 63.7038 49.693 66.8477 55.9489 66.8477C62.3444 66.8477 67.1088 63.5367 67.1088 57.4953C67.1088 51.8884 63.8797 49.3942 58.1537 46.9522L56.4704 46.2335C53.5813 44.9864 52.3297 44.1717 52.3297 42.1579C52.3297 40.5285 53.5792 39.2814 55.5525 39.2814C57.4862 39.2814 58.7336 40.094 59.8872 42.1579L65.1313 38.8009C62.9118 34.9112 59.835 33.4259 55.5525 33.4259C49.5387 33.4259 45.6901 37.2571 45.6901 42.2916C45.6901 47.7543 48.9212 50.3405 53.7795 52.4044L55.4628 53.123C58.5334 54.4621 60.0478 55.2789 60.0478 57.5789C60.0478 59.5007 58.5834 60.8899 55.7924 60.8899ZM30.256 59.812C27.9489 59.812 26.3448 58.356 25.2893 56.4633L19.8262 59.812C21.4073 63.2004 25.2872 66.8477 30.6628 66.8477C36.6119 66.8477 40.6858 63.6474 40.6858 56.6138V33.4238H33.7333V55.5442C33.7333 58.9388 32.463 59.812 30.256 59.812Z" fill="#29313D"/>
<path fill-rule="evenodd" clip-rule="evenodd" d="M0.260986 0V75H75.261V0H0.260986ZM55.7924 60.8899C52.4695 60.8899 50.9008 58.6401 49.4573 56.292L44.1631 59.812C46.1406 63.7038 49.693 66.8477 55.9489 66.8477C62.3444 66.8477 67.1088 63.5367 67.1088 57.4953C67.1088 51.8884 63.8797 49.3942 58.1537 46.9522L56.4704 46.2335C53.5813 44.9864 52.3297 44.1717 52.3297 42.1579C52.3297 40.5285 53.5792 39.2814 55.5525 39.2814C57.4862 39.2814 58.7336 40.094 59.8872 42.1579L65.1313 38.8009C62.9118 34.9112 59.835 33.4259 55.5525 33.4259C49.5387 33.4259 45.6901 37.2571 45.6901 42.2916C45.6901 47.7543 48.9212 50.3405 53.7795 52.4044L55.4628 53.123C58.5334 54.4621 60.0478 55.2789 60.0478 57.5789C60.0478 59.5007 58.5834 60.8899 55.7924 60.8899ZM30.256 59.812C27.9489 59.812 26.3448 58.356 25.2893 56.4633L19.8262 59.812C21.4073 63.2004 25.2872 66.8477 30.6628 66.8477C36.6119 66.8477 40.6858 63.6474 40.6858 56.6138V33.4238H33.7333V55.5442C33.7333 58.9388 32.463 59.812 30.256 59.812Z" fill="white" fill-opacity="0.25"/>
</svg>
