<svg width="27" height="20" viewBox="0 0 27 20" fill="none" xmlns="http://www.w3.org/2000/svg">
<g clip-path="url(#clip0_407_288)">
<path d="M4.3291 18.0024L6.79551 15.8002C6.90861 15.6995 7.05453 15.6436 7.20586 15.6431H13.1785C13.2048 15.6434 13.2309 15.6384 13.2553 15.6284C13.2797 15.6185 13.3018 15.6038 13.3204 15.5851C13.3391 15.5665 13.3538 15.5443 13.3637 15.5199C13.3736 15.4954 13.3786 15.4693 13.3783 15.4429V14.1858H14.6094V15.4429C14.6077 15.8237 14.4559 16.1885 14.1872 16.4578C13.9184 16.7271 13.5543 16.8792 13.1742 16.8809H7.43789L4.14648 19.8192C4.06064 19.9053 3.95134 19.964 3.83229 19.9881C3.71324 20.0122 3.58975 20.0005 3.47731 19.9545C3.36487 19.9085 3.26848 19.8303 3.20025 19.7296C3.13201 19.6289 3.09496 19.5103 3.09375 19.3887V16.8809H1.4373C1.05683 16.8797 0.692224 16.7279 0.422984 16.4586C0.153743 16.1892 0.00169942 15.8241 0 15.4429L0 6.15434C0.00447265 5.77399 0.157406 5.41052 0.426049 5.14176C0.694693 4.87299 1.05769 4.7203 1.4373 4.71639H9.31348V5.95415H1.4373C1.38509 5.95717 1.33577 5.97917 1.29859 6.01603C1.26141 6.05288 1.23893 6.10206 1.23535 6.15434V15.4429C1.23554 15.4691 1.24097 15.4949 1.2513 15.519C1.26163 15.543 1.27666 15.5647 1.29551 15.5828C1.33371 15.6198 1.38423 15.6413 1.4373 15.6431H3.71035C3.87445 15.6431 4.03184 15.7084 4.14787 15.8247C4.26391 15.9409 4.3291 16.0986 4.3291 16.2631V18.0024ZM4.37422 13.8091L6.35938 7.8011H8.25644L10.2416 13.8091H8.66895L8.33594 12.7155H6.2627L5.93828 13.8091H4.37422ZM6.61504 11.4606H7.98359L7.30469 9.00011L6.61504 11.4606ZM16.4635 2.87375H18.3326V2.39156C18.3326 2.35217 18.3482 2.31439 18.376 2.28653C18.4038 2.25868 18.4415 2.24303 18.4809 2.24303H19.4799C19.4993 2.24303 19.5184 2.24689 19.5363 2.25438C19.5542 2.26187 19.5704 2.27284 19.584 2.28666C19.5975 2.30048 19.6083 2.31688 19.6155 2.33488C19.6227 2.35289 19.6263 2.37216 19.626 2.39156V2.87375H21.7229C21.7422 2.87375 21.7614 2.8776 21.7793 2.88509C21.7971 2.89258 21.8133 2.90356 21.8269 2.91738C21.8405 2.9312 21.8512 2.94759 21.8584 2.9656C21.8657 2.98361 21.8692 3.00288 21.8689 3.02228V3.98235C21.8689 4.02117 21.8536 4.0584 21.8262 4.08585C21.7988 4.11331 21.7616 4.12873 21.7229 4.12873H21.3898C21.3458 4.41169 21.2805 4.69089 21.1943 4.96394V4.97686C21.0957 5.28488 20.9706 5.58377 20.8205 5.8702C20.6828 6.12568 20.5292 6.37228 20.3607 6.60855C20.2168 6.82381 20.0578 7.01754 19.8881 7.21774C20.1309 7.5118 20.3951 7.78738 20.6787 8.04219C21.0223 8.33804 21.3878 8.60718 21.7723 8.84727C21.7885 8.85757 21.8026 8.87098 21.8136 8.88673C21.8247 8.90248 21.8326 8.92026 21.8367 8.93906C21.8409 8.95786 21.8414 8.9773 21.8381 8.99627C21.8347 9.01524 21.8277 9.03337 21.8174 9.04962L21.3039 9.85255C21.2933 9.87025 21.2791 9.88553 21.2622 9.89742C21.2453 9.90931 21.2262 9.91754 21.206 9.92159C21.1858 9.92565 21.1649 9.92543 21.1448 9.92095C21.1247 9.91647 21.1057 9.90784 21.0891 9.8956C20.668 9.63346 20.2672 9.33987 19.8902 9.01733C19.5838 8.74336 19.2966 8.44846 19.0309 8.13475C18.7559 8.38015 18.5088 8.61048 18.2617 8.82575C17.9695 9.06684 17.6623 9.29932 17.3014 9.54903C17.2852 9.56156 17.2665 9.57059 17.2467 9.57556C17.2268 9.58052 17.2061 9.58131 17.1859 9.57788C17.1658 9.57444 17.1465 9.56685 17.1294 9.55558C17.1123 9.54432 17.0977 9.52963 17.0865 9.51243L16.543 8.72457C16.5305 8.70833 16.5214 8.68967 16.5165 8.66977C16.5115 8.64987 16.5107 8.62915 16.5142 8.60893C16.5176 8.5887 16.5252 8.56941 16.5364 8.55227C16.5477 8.53512 16.5623 8.5205 16.5795 8.50931C16.9361 8.26391 17.224 8.03789 17.5162 7.80325C17.7654 7.58799 18.0061 7.37273 18.266 7.12302C18.0492 6.81562 17.8505 6.49577 17.6709 6.16511C17.4662 5.77173 17.3041 5.35749 17.1875 4.9295C17.1823 4.91099 17.1807 4.89162 17.183 4.8725C17.1852 4.85339 17.1912 4.83491 17.2006 4.81811C17.2099 4.80132 17.2225 4.78654 17.2376 4.77463C17.2527 4.76271 17.27 4.7539 17.2885 4.74868L18.2059 4.49252C18.2243 4.48727 18.2437 4.48573 18.2627 4.48797C18.2818 4.49022 18.3003 4.49621 18.317 4.50561C18.3338 4.51501 18.3485 4.52762 18.3604 4.54274C18.3723 4.55785 18.3811 4.57517 18.3863 4.59369C18.5339 5.16187 18.7828 5.69861 19.1211 6.17802L19.3939 5.81208C19.5117 5.64094 19.62 5.46344 19.7184 5.28038C19.8225 5.07904 19.9102 4.86955 19.9805 4.65397C20.0369 4.4815 20.0842 4.30618 20.1223 4.12873H16.4699C16.431 4.12873 16.3936 4.11338 16.3659 4.08599C16.3381 4.0586 16.3222 4.02137 16.3217 3.98235V3.01367C16.3217 2.97428 16.3373 2.9365 16.3651 2.90864C16.3929 2.88079 16.4306 2.86514 16.4699 2.86514L16.4635 2.87375ZM22.2643 15.1049L18.9621 12.1645H13.2215C12.8414 12.1622 12.4774 12.0101 12.2084 11.7409C11.9394 11.4718 11.787 11.1074 11.7842 10.7265V1.4401C11.7876 1.05779 11.9421 0.69242 12.2139 0.424066L12.2568 0.385319C12.519 0.140553 12.8632 0.00307816 13.2215 0L24.9627 0C25.3436 0.00348116 25.7076 0.15833 25.9746 0.430524L26.0154 0.473577C26.2604 0.737565 26.3976 1.08398 26.4 1.44441V10.7265C26.3972 11.1074 26.2448 11.4718 25.9758 11.7409C25.7068 12.0101 25.3428 12.1622 24.9627 12.1645H23.3084V14.6658C23.3066 14.7875 23.2691 14.9059 23.2006 15.0064C23.1321 15.1068 23.0356 15.1849 22.9231 15.2308C22.8107 15.2767 22.6872 15.2884 22.5681 15.2645C22.4491 15.2406 22.3396 15.1821 22.2535 15.0963L22.2643 15.1049ZM19.6066 11.0838L22.0709 13.286V11.5467C22.0709 11.3822 22.1361 11.2245 22.2521 11.1083C22.3682 10.992 22.5255 10.9267 22.6896 10.9267H24.9627C24.9888 10.9264 25.0146 10.9209 25.0385 10.9106C25.0625 10.9002 25.0842 10.8852 25.1023 10.8664C25.1216 10.8485 25.137 10.8269 25.1477 10.8028C25.1584 10.7788 25.1642 10.7528 25.1646 10.7265V1.4401C25.1625 1.39452 25.1459 1.3508 25.1174 1.31525L25.1023 1.29157C25.065 1.25431 25.0153 1.23209 24.9627 1.22915H13.2215C13.1769 1.23638 13.1361 1.25836 13.1055 1.29157H13.0818C13.0631 1.30976 13.0481 1.33149 13.0378 1.3555C13.0275 1.37952 13.022 1.40535 13.0217 1.43149V10.7265C13.0214 10.7529 13.0264 10.779 13.0363 10.8035C13.0462 10.8279 13.0609 10.8501 13.0796 10.8687C13.0982 10.8874 13.1203 10.9021 13.1447 10.9121C13.1691 10.922 13.1952 10.927 13.2215 10.9267H19.1963C19.3477 10.9266 19.4939 10.9826 19.6066 11.0838Z" fill="#7E7E7E"/>
</g>
<defs>
<clipPath id="clip0_407_288">
<rect width="26.4" height="20" fill="white"/>
</clipPath>
</defs>
</svg>
