<svg width="17" height="18" viewBox="0 0 17 18" fill="none" xmlns="http://www.w3.org/2000/svg">
<path d="M14.7649 1.96361C12.5571 -0.139073 8.96174 -0.139073 6.75627 1.96361L0.639084 7.78503C0.599241 7.82298 0.578147 7.87432 0.578147 7.92789C0.578147 7.98146 0.599241 8.0328 0.639084 8.07075L1.50393 8.89441C1.54346 8.93189 1.59697 8.95294 1.65276 8.95294C1.70854 8.95294 1.76205 8.93189 1.80158 8.89441L7.91877 3.07298C8.67815 2.34977 9.6883 1.95244 10.7617 1.95244C11.8352 1.95244 12.8453 2.34977 13.6024 3.07298C14.3617 3.79619 14.7789 4.75825 14.7789 5.77834C14.7789 6.80066 14.3617 7.76048 13.6024 8.4837L7.36799 14.419L6.35783 15.381C5.4133 16.2806 3.87815 16.2806 2.93362 15.381C2.47658 14.9457 2.2258 14.3676 2.2258 13.7516C2.2258 13.1355 2.47658 12.5574 2.93362 12.1221L9.11877 6.23369C9.2758 6.08637 9.48205 6.00378 9.70236 6.00378H9.70471C9.92502 6.00378 10.1289 6.08637 10.2836 6.23369C10.4406 6.38325 10.525 6.57968 10.525 6.7895C10.525 6.99709 10.4383 7.19352 10.2836 7.34084L5.22815 12.1511C5.1883 12.1891 5.16721 12.2404 5.16721 12.294C5.16721 12.3475 5.1883 12.3989 5.22815 12.4368L6.09299 13.2605C6.13252 13.298 6.18603 13.319 6.24182 13.319C6.2976 13.319 6.35112 13.298 6.39065 13.2605L11.4438 8.44798C11.9102 8.00378 12.1656 7.4145 12.1656 6.78727C12.1656 6.16003 11.9078 5.56852 11.4438 5.12655C10.4805 4.20914 8.91487 4.21137 7.95158 5.12655L7.35158 5.70021L1.76877 11.0149C1.38986 11.3737 1.0895 11.8005 0.88512 12.2707C0.680737 12.7408 0.576396 13.2449 0.578147 13.7538C0.578147 14.7873 1.00237 15.7582 1.76877 16.4882C2.5633 17.2426 3.60393 17.6199 4.64455 17.6199C5.68518 17.6199 6.7258 17.2426 7.51799 16.4882L14.7649 9.59084C15.8313 8.57298 16.4219 7.21807 16.4219 5.77834C16.4242 4.33637 15.8336 2.98146 14.7649 1.96361Z" fill="#7E7E7E"/>
</svg>
