<svg width="14" height="14" viewBox="0 0 14 14" fill="none" xmlns="http://www.w3.org/2000/svg">
<path d="M12.654 0.66018C12.6293 0.660989 12.6048 0.663162 12.5804 0.66669H8.33366C8.24532 0.665441 8.15761 0.681762 8.07563 0.714704C7.99365 0.747647 7.91904 0.796554 7.85612 0.858583C7.79321 0.920613 7.74325 0.994528 7.70916 1.07603C7.67506 1.15754 7.6575 1.24501 7.6575 1.33336C7.6575 1.42171 7.67506 1.50918 7.70916 1.59068C7.74325 1.67219 7.79321 1.7461 7.85612 1.80813C7.91904 1.87016 7.99365 1.91907 8.07563 1.95201C8.15761 1.98495 8.24532 2.00127 8.33366 2.00002H11.0576L6.52897 6.52867C6.46499 6.5901 6.41391 6.66368 6.37872 6.7451C6.34352 6.82652 6.32493 6.91414 6.32403 7.00283C6.32313 7.09153 6.33993 7.17951 6.37346 7.26163C6.40698 7.34375 6.45656 7.41835 6.51928 7.48107C6.582 7.54379 6.6566 7.59336 6.73872 7.62689C6.82084 7.66042 6.90882 7.67722 6.99752 7.67632C7.08621 7.67542 7.17383 7.65682 7.25525 7.62163C7.33667 7.58644 7.41025 7.53536 7.47168 7.47138L12.0003 2.94273V5.66669C11.9991 5.75503 12.0154 5.84274 12.0483 5.92472C12.0813 6.0067 12.1302 6.08131 12.1922 6.14423C12.2542 6.20714 12.3282 6.2571 12.4097 6.29119C12.4912 6.32529 12.5786 6.34285 12.667 6.34285C12.7553 6.34285 12.8428 6.32529 12.9243 6.29119C13.0058 6.2571 13.0797 6.20714 13.1418 6.14423C13.2038 6.08131 13.2527 6.0067 13.2856 5.92472C13.3186 5.84274 13.3349 5.75503 13.3337 5.66669V1.41539C13.3465 1.3196 13.3384 1.22217 13.3099 1.12983C13.2814 1.03749 13.2331 0.95246 13.1684 0.880625C13.1038 0.808789 13.0243 0.751868 12.9355 0.713804C12.8466 0.675739 12.7506 0.657442 12.654 0.66018ZM3.16699 1.66669C1.79455 1.66669 0.666992 2.79425 0.666992 4.16669V10.8334C0.666992 12.2058 1.79455 13.3334 3.16699 13.3334H9.83366C11.2061 13.3334 12.3337 12.2058 12.3337 10.8334V7.66669C12.3349 7.57835 12.3186 7.49064 12.2856 7.40866C12.2527 7.32668 12.2038 7.25207 12.1418 7.18916C12.0797 7.12624 12.0058 7.07629 11.9243 7.04219C11.8428 7.00809 11.7553 6.99053 11.667 6.99053C11.5786 6.99053 11.4912 7.00809 11.4097 7.04219C11.3282 7.07629 11.2542 7.12624 11.1922 7.18916C11.1302 7.25207 11.0813 7.32668 11.0483 7.40866C11.0154 7.49064 10.9991 7.57835 11.0003 7.66669V10.8334C11.0003 11.4823 10.4826 12 9.83366 12H3.16699C2.5181 12 2.00033 11.4823 2.00033 10.8334V4.16669C2.00033 3.51779 2.5181 3.00002 3.16699 3.00002H6.33366C6.422 3.00127 6.50971 2.98495 6.59169 2.95201C6.67367 2.91907 6.74828 2.87016 6.81119 2.80813C6.87411 2.7461 6.92406 2.67219 6.95816 2.59068C6.99226 2.50918 7.00982 2.42171 7.00982 2.33336C7.00982 2.24501 6.99226 2.15754 6.95816 2.07603C6.92406 1.99453 6.87411 1.92061 6.81119 1.85858C6.74828 1.79655 6.67367 1.74765 6.59169 1.7147C6.50971 1.68176 6.422 1.66544 6.33366 1.66669H3.16699Z" fill="black"/>
</svg>
