<svg width="75" height="76" viewBox="0 0 75 76" fill="none" xmlns="http://www.w3.org/2000/svg">
<path d="M37.5 0C16.8228 0 0 16.8246 0 37.5075C0 58.1904 16.8228 75.015 37.5 75.015C58.1772 75.015 75 58.1904 75 37.5075C75 16.8246 58.1772 0 37.5 0ZM26.087 53.8151H19.5652V29.3537H26.087V53.8151ZM22.8261 24.4614C21.0245 24.4614 19.5652 23.0019 19.5652 21.1999C19.5652 19.3979 21.0245 17.9384 22.8261 17.9384C24.6277 17.9384 26.087 19.3979 26.087 21.1999C26.087 23.0019 24.6277 24.4614 22.8261 24.4614ZM57.0652 53.8151H50.5435V45.6613V41.5844C50.5435 38.4452 47.9755 35.8767 44.837 35.8767C41.6984 35.8767 39.1304 38.4452 39.1304 41.5844V53.8151H32.6087V29.3537H39.1304V32.3152C41.0348 30.4854 43.6174 29.3537 46.4674 29.3537C52.3207 29.3537 57.0652 34.0992 57.0652 39.9536V53.8151Z" fill="black"/>
</svg>
