<svg width="67" height="75" viewBox="0 0 67 75" fill="none" xmlns="http://www.w3.org/2000/svg">
<path d="M66.052 1.04236C65.4576 0.378756 64.6097 0 63.7211 0H3.1288C2.24022 0 1.39232 0.378756 0.797848 1.04236C0.203377 1.70597 -0.0782152 2.59182 0.0187775 3.47454L6.90839 65.5248C7.04605 66.7863 7.93776 67.8412 9.15799 68.1887L32.5614 74.8779C32.843 74.9593 33.134 75 33.4218 75C33.7097 75 34.0006 74.9593 34.2822 74.8779L57.6856 68.1887C58.9059 67.8412 59.7944 66.7863 59.9352 65.5248L66.828 3.47454C66.9281 2.59182 66.6465 1.70597 66.052 1.04236ZM51.0369 23.2575H23.0968L23.7601 31.2145H50.3642L48.3681 54.7225L33.4343 59.4741L33.2873 59.4272L18.5194 54.7162L17.7121 45.1377H24.9459L25.2619 48.8596L33.5125 50.6782L41.6193 48.8564L42.4797 38.799H17.1677L15.2091 15.6511H51.6877L51.0369 23.2575Z" fill="#29313D"/>
<path d="M66.052 1.04236C65.4576 0.378756 64.6097 0 63.7211 0H3.1288C2.24022 0 1.39232 0.378756 0.797848 1.04236C0.203377 1.70597 -0.0782152 2.59182 0.0187775 3.47454L6.90839 65.5248C7.04605 66.7863 7.93776 67.8412 9.15799 68.1887L32.5614 74.8779C32.843 74.9593 33.134 75 33.4218 75C33.7097 75 34.0006 74.9593 34.2822 74.8779L57.6856 68.1887C58.9059 67.8412 59.7944 66.7863 59.9352 65.5248L66.828 3.47454C66.9281 2.59182 66.6465 1.70597 66.052 1.04236ZM51.0369 23.2575H23.0968L23.7601 31.2145H50.3642L48.3681 54.7225L33.4343 59.4741L33.2873 59.4272L18.5194 54.7162L17.7121 45.1377H24.9459L25.2619 48.8596L33.5125 50.6782L41.6193 48.8564L42.4797 38.799H17.1677L15.2091 15.6511H51.6877L51.0369 23.2575Z" fill="white" fill-opacity="0.25"/>
</svg>
