<svg width="70" height="75" viewBox="0 0 70 75" fill="none" xmlns="http://www.w3.org/2000/svg">
<path d="M31.9374 0.800144C33.797 -0.264309 36.2192 -0.269117 38.0773 0.800144C47.425 6.08208 56.7756 11.3557 66.1217 16.6409C67.8796 17.6311 69.0554 19.5874 69.0375 21.613V53.3911C69.0506 55.5005 67.7586 57.5036 65.904 58.4714C56.587 63.7242 47.2749 68.9834 37.9595 74.2362C36.0614 75.3215 33.5906 75.2379 31.7517 74.0637C28.9585 72.4444 26.1605 70.8332 23.367 69.2155C22.7962 68.8752 22.1527 68.6044 21.7496 68.0509C22.1059 67.5706 22.743 67.5108 23.2607 67.3011C24.4266 66.9304 25.4975 66.3352 26.5686 65.7577C26.8395 65.5724 27.1702 65.6434 27.4298 65.8093C29.8184 67.1788 32.1858 68.5881 34.5824 69.9445C35.0936 70.2397 35.6113 69.8478 36.0483 69.6042C45.1911 64.4369 54.3451 59.289 63.4863 54.1201C63.825 53.9571 64.0123 53.5976 63.9848 53.2266C63.9912 42.7436 63.9864 32.2588 63.988 21.7759C64.0267 21.3549 63.7831 20.9679 63.4025 20.7956C54.1178 15.5668 44.838 10.33 35.5549 5.0999C35.3941 4.98932 35.2036 4.93 35.0084 4.92971C34.8132 4.92943 34.6225 4.98819 34.4614 5.09829C25.1783 10.33 15.9001 15.5716 6.61701 20.8001C6.23771 20.9727 5.98315 21.3533 6.02829 21.7759C6.02989 32.2588 6.02829 42.7436 6.02829 53.2282C6.01219 53.4092 6.05195 53.5908 6.14222 53.7486C6.23248 53.9063 6.36891 54.0326 6.53314 54.1105C9.01036 55.5152 11.4908 56.9101 13.9696 58.31C15.3661 59.0617 17.0807 59.5083 18.6193 58.9324C19.977 58.4455 20.9288 57.0599 20.9029 55.6183C20.9157 45.1965 20.8964 34.7732 20.9125 24.353C20.8786 23.8904 21.3174 23.5081 21.7672 23.5517C22.9575 23.5437 24.1494 23.5356 25.3396 23.5549C25.8365 23.5437 26.1784 24.0418 26.1169 24.5079C26.1121 34.9957 26.1298 45.4837 26.1089 55.9714C26.1121 58.7665 24.9638 61.8079 22.3784 63.1755C19.1933 64.8255 15.2566 64.4756 12.11 62.8935C9.38593 61.5338 6.78636 59.9293 4.11067 58.4727C2.25128 57.5103 0.965657 55.4992 0.978746 53.3914V21.613C0.959246 19.5455 2.18183 17.5536 3.99447 16.5778C13.3098 11.3207 22.6236 6.05964 31.9374 0.800144Z" fill="#29313D"/>
<path d="M31.9374 0.800144C33.797 -0.264309 36.2192 -0.269117 38.0773 0.800144C47.425 6.08208 56.7756 11.3557 66.1217 16.6409C67.8796 17.6311 69.0554 19.5874 69.0375 21.613V53.3911C69.0506 55.5005 67.7586 57.5036 65.904 58.4714C56.587 63.7242 47.2749 68.9834 37.9595 74.2362C36.0614 75.3215 33.5906 75.2379 31.7517 74.0637C28.9585 72.4444 26.1605 70.8332 23.367 69.2155C22.7962 68.8752 22.1527 68.6044 21.7496 68.0509C22.1059 67.5706 22.743 67.5108 23.2607 67.3011C24.4266 66.9304 25.4975 66.3352 26.5686 65.7577C26.8395 65.5724 27.1702 65.6434 27.4298 65.8093C29.8184 67.1788 32.1858 68.5881 34.5824 69.9445C35.0936 70.2397 35.6113 69.8478 36.0483 69.6042C45.1911 64.4369 54.3451 59.289 63.4863 54.1201C63.825 53.9571 64.0123 53.5976 63.9848 53.2266C63.9912 42.7436 63.9864 32.2588 63.988 21.7759C64.0267 21.3549 63.7831 20.9679 63.4025 20.7956C54.1178 15.5668 44.838 10.33 35.5549 5.0999C35.3941 4.98932 35.2036 4.93 35.0084 4.92971C34.8132 4.92943 34.6225 4.98819 34.4614 5.09829C25.1783 10.33 15.9001 15.5716 6.61701 20.8001C6.23771 20.9727 5.98315 21.3533 6.02829 21.7759C6.02989 32.2588 6.02829 42.7436 6.02829 53.2282C6.01219 53.4092 6.05195 53.5908 6.14222 53.7486C6.23248 53.9063 6.36891 54.0326 6.53314 54.1105C9.01036 55.5152 11.4908 56.9101 13.9696 58.31C15.3661 59.0617 17.0807 59.5083 18.6193 58.9324C19.977 58.4455 20.9288 57.0599 20.9029 55.6183C20.9157 45.1965 20.8964 34.7732 20.9125 24.353C20.8786 23.8904 21.3174 23.5081 21.7672 23.5517C22.9575 23.5437 24.1494 23.5356 25.3396 23.5549C25.8365 23.5437 26.1784 24.0418 26.1169 24.5079C26.1121 34.9957 26.1298 45.4837 26.1089 55.9714C26.1121 58.7665 24.9638 61.8079 22.3784 63.1755C19.1933 64.8255 15.2566 64.4756 12.11 62.8935C9.38593 61.5338 6.78636 59.9293 4.11067 58.4727C2.25128 57.5103 0.965657 55.4992 0.978746 53.3914V21.613C0.959246 19.5455 2.18183 17.5536 3.99447 16.5778C13.3098 11.3207 22.6236 6.05964 31.9374 0.800144Z" fill="white" fill-opacity="0.25"/>
<path d="M40.0641 22.8131C44.1269 22.5515 48.4763 22.6581 52.1324 24.6596C54.963 26.1934 56.5323 29.4124 56.5822 32.5571C56.5032 32.9813 56.0597 33.2153 55.6548 33.1862C54.476 33.1846 53.297 33.2022 52.1182 33.1782C51.6182 33.1974 51.3275 32.7364 51.2648 32.2943C50.9261 30.7896 50.1055 29.2994 48.6892 28.5737C46.5152 27.4852 43.9944 27.5399 41.6238 27.5626C39.8931 27.6545 38.0321 27.8044 36.566 28.8221C35.4403 29.593 35.0984 31.1492 35.5002 32.4025C35.8789 33.3024 36.9177 33.5928 37.7677 33.8604C42.6639 35.141 47.8524 35.0135 52.6551 36.6988C54.6435 37.3858 56.5886 38.7214 57.2692 40.8033C58.1595 43.5935 57.7693 46.9287 55.7841 49.1688C54.1742 51.0121 51.8294 52.0154 49.4909 52.5603C46.3798 53.254 43.1511 53.2717 39.9917 52.9637C37.0208 52.625 33.9293 51.8445 31.6358 49.8203C29.6746 48.1174 28.7168 45.4642 28.8119 42.9033C28.8346 42.4709 29.2652 42.1693 29.6795 42.2048C30.8665 42.1952 32.0536 42.192 33.2406 42.2064C33.7148 42.1725 34.0663 42.5822 34.0906 43.0291C34.3096 44.4627 34.8484 45.9674 36.0985 46.8174C38.5111 48.3738 41.5383 48.2673 44.3008 48.3108C46.5894 48.2093 49.1586 48.1786 51.0262 46.6659C52.0116 45.8031 52.3036 44.3596 52.0373 43.1178C51.7488 42.0694 50.652 41.5808 49.7102 41.2614C44.8767 39.7324 39.6303 40.2872 34.8436 38.5582C32.9003 37.8714 31.0212 36.573 30.2746 34.5765C29.2328 31.751 29.7102 28.2561 31.9035 26.0916C34.042 23.9387 37.129 23.1096 40.0641 22.8128V22.8131Z" fill="#29313D"/>
<path d="M40.0641 22.8131C44.1269 22.5515 48.4763 22.6581 52.1324 24.6596C54.963 26.1934 56.5323 29.4124 56.5822 32.5571C56.5032 32.9813 56.0597 33.2153 55.6548 33.1862C54.476 33.1846 53.297 33.2022 52.1182 33.1782C51.6182 33.1974 51.3275 32.7364 51.2648 32.2943C50.9261 30.7896 50.1055 29.2994 48.6892 28.5737C46.5152 27.4852 43.9944 27.5399 41.6238 27.5626C39.8931 27.6545 38.0321 27.8044 36.566 28.8221C35.4403 29.593 35.0984 31.1492 35.5002 32.4025C35.8789 33.3024 36.9177 33.5928 37.7677 33.8604C42.6639 35.141 47.8524 35.0135 52.6551 36.6988C54.6435 37.3858 56.5886 38.7214 57.2692 40.8033C58.1595 43.5935 57.7693 46.9287 55.7841 49.1688C54.1742 51.0121 51.8294 52.0154 49.4909 52.5603C46.3798 53.254 43.1511 53.2717 39.9917 52.9637C37.0208 52.625 33.9293 51.8445 31.6358 49.8203C29.6746 48.1174 28.7168 45.4642 28.8119 42.9033C28.8346 42.4709 29.2652 42.1693 29.6795 42.2048C30.8665 42.1952 32.0536 42.192 33.2406 42.2064C33.7148 42.1725 34.0663 42.5822 34.0906 43.0291C34.3096 44.4627 34.8484 45.9674 36.0985 46.8174C38.5111 48.3738 41.5383 48.2673 44.3008 48.3108C46.5894 48.2093 49.1586 48.1786 51.0262 46.6659C52.0116 45.8031 52.3036 44.3596 52.0373 43.1178C51.7488 42.0694 50.652 41.5808 49.7102 41.2614C44.8767 39.7324 39.6303 40.2872 34.8436 38.5582C32.9003 37.8714 31.0212 36.573 30.2746 34.5765C29.2328 31.751 29.7102 28.2561 31.9035 26.0916C34.042 23.9387 37.129 23.1096 40.0641 22.8128V22.8131Z" fill="white" fill-opacity="0.25"/>
</svg>
