<svg width="84" height="75" viewBox="0 0 84 75" fill="none" xmlns="http://www.w3.org/2000/svg">
<path d="M27.1511 0C25.0342 0 23.0708 0.474129 21.3315 1.4759C15.8959 4.61567 13.8269 12.267 14.9232 21.7932C6.13094 25.6064 0.543457 31.2213 0.543457 37.5C0.543457 43.7787 6.13094 49.3936 14.9232 53.2068C13.8275 62.7326 15.8959 70.3843 21.3315 73.5241C23.0673 74.5259 25.0307 75 27.1511 75C31.6642 75 36.8804 72.7338 42.1195 68.8459C47.3591 72.7338 52.5816 75 57.0948 75C59.2117 75 61.1751 74.5259 62.9144 73.5241C68.3499 70.3844 70.4189 62.7329 69.3226 53.2068C78.1116 49.3936 83.6956 43.7773 83.6956 37.5C83.6956 31.2213 78.1082 25.6064 69.3159 21.7932C70.4116 12.2674 68.3432 4.61567 62.9076 1.4759C61.1718 0.470663 59.2084 0 57.088 0C52.5748 0 47.3587 2.26618 42.1195 6.15409C36.8801 2.26618 31.6627 0 27.1511 0ZM27.1511 6.06608C29.8592 6.06608 33.4404 7.50671 37.3286 10.1756C35.0425 12.334 32.8036 14.7884 30.6496 17.5212C27.1559 18.0224 23.8619 18.753 20.8104 19.6674C20.7941 19.4556 20.7552 19.2335 20.7428 19.0242C20.3721 12.8541 21.7265 8.25474 24.3631 6.72955C25.1426 6.27893 26.0528 6.06608 27.1511 6.06608ZM57.088 6.06608C58.1829 6.06608 59.0964 6.27893 59.876 6.72955C62.5126 8.25127 63.867 12.8541 63.4963 19.0242C63.4837 19.2335 63.4451 19.4556 63.4286 19.6674C60.3753 18.7524 57.0789 18.0224 53.5827 17.5212C51.4288 14.7888 49.1965 12.3338 46.9105 10.1756C50.7984 7.50716 54.3813 6.06608 57.088 6.06608ZM42.1195 14.0278C43.0587 14.8831 43.9914 15.787 44.9346 16.7765C43.9999 16.7451 43.0702 16.702 42.1195 16.702C41.1712 16.702 40.2438 16.7452 39.3113 16.7765C40.2536 15.7881 41.1812 14.8823 42.1195 14.0278ZM42.1195 22.7681C44.9907 22.7681 47.712 22.9287 50.294 23.2082C51.8687 25.3495 53.4205 27.6134 54.8752 30.134C56.2695 32.5502 57.5025 35.0233 58.5903 37.5C57.5023 39.9782 56.2704 42.4551 54.8752 44.8727C53.425 47.3861 51.877 49.6354 50.3075 51.7715C47.6343 52.0642 44.892 52.2319 42.1195 52.2319C39.2484 52.2319 36.5271 52.0713 33.9451 51.7918C32.3704 49.6505 30.8186 47.3934 29.3639 44.8727C27.9687 42.4551 26.7371 39.9782 25.6488 37.5C26.7363 35.0233 27.9696 32.5502 29.3639 30.134C30.8146 27.6206 32.3617 25.3646 33.9315 23.2285C36.6048 22.9358 39.347 22.7681 42.1195 22.7681ZM58.5632 24.6434C59.9378 24.9755 61.2593 25.3339 62.5016 25.7334C62.2201 27.0058 61.8759 28.3025 61.4865 29.6127C61.0407 28.7757 60.6083 27.9361 60.1264 27.101C59.6305 26.242 59.08 25.4703 58.5632 24.6434ZM25.6691 24.6502C25.1541 25.4745 24.607 26.2448 24.1127 27.101C23.6309 27.9362 23.1983 28.7756 22.7526 29.6127C22.3623 28.2998 22.0125 27.0015 21.7308 25.7267C22.9958 25.3268 24.314 24.9726 25.6691 24.6502ZM16.0262 27.9541C16.7562 31.0378 17.7689 34.2344 19.0713 37.4932C17.7716 40.7443 16.7632 43.9351 16.033 47.0121C9.99936 44.0971 6.60664 40.4685 6.60664 37.5C6.60664 34.4531 9.90457 30.9808 15.4307 28.2181C15.6194 28.1237 15.8335 28.0462 16.0262 27.9541ZM68.2061 27.9879C74.2397 30.9029 77.6325 34.5315 77.6325 37.5C77.6325 40.5469 74.3345 44.0192 68.8084 46.7819C68.6197 46.8763 68.4056 46.9537 68.2129 47.0459C67.4824 43.9604 66.4781 40.7608 65.1745 37.5C66.4727 34.2517 67.4765 31.0623 68.2061 27.9879ZM42.1195 30.5673C38.2911 30.5673 35.1902 33.6697 35.1902 37.5C35.1902 41.3303 38.2911 44.4327 42.1195 44.4327C45.948 44.4327 49.0489 41.3303 49.0489 37.5C49.0489 33.6697 45.948 30.5673 42.1195 30.5673ZM22.7526 45.3873C23.1985 46.2246 23.6373 47.0636 24.1195 47.899C24.6148 48.7573 25.1597 49.5303 25.6759 50.3566C24.3013 50.0245 22.9798 49.6661 21.7375 49.2666C22.0192 47.9934 22.3628 46.6984 22.7526 45.3873ZM61.4865 45.394C61.8764 46.7057 62.2268 47.9997 62.5083 49.2733C61.2433 49.6732 59.9251 50.0274 58.57 50.3498C59.085 49.5255 59.6321 48.7552 60.1264 47.899C60.6072 47.0655 61.0417 46.2294 61.4865 45.394ZM20.8104 55.3326C23.8638 56.2476 27.1602 56.9776 30.6563 57.4788C32.811 60.2126 35.0415 62.6723 37.3286 64.8312C33.4407 67.4993 29.859 68.9407 27.1511 68.9407C26.0562 68.9407 25.1426 68.7211 24.3631 68.2704C21.7265 66.7487 20.3721 62.1526 20.7428 55.9826C20.7555 55.7711 20.7938 55.5466 20.8104 55.3326ZM63.4286 55.3326C63.4452 55.5466 63.4837 55.7711 63.4963 55.9826C63.867 62.1526 62.5126 66.7453 59.876 68.2704C59.0964 68.7211 58.1863 68.9407 57.088 68.9407C54.3801 68.9407 50.7984 67.4997 46.9105 64.8312C49.1978 62.672 51.4345 60.213 53.5895 57.4788C57.0832 56.9776 60.3772 56.247 63.4286 55.3326ZM39.3045 58.2235C40.2392 58.2549 41.1689 58.298 42.1195 58.298C43.0702 58.298 43.9999 58.2549 44.9346 58.2235C43.9914 59.213 43.0587 60.117 42.1195 60.9722C41.1803 60.1169 40.2477 59.213 39.3045 58.2235Z" fill="#29313D"/>
<path d="M27.1511 0C25.0342 0 23.0708 0.474129 21.3315 1.4759C15.8959 4.61567 13.8269 12.267 14.9232 21.7932C6.13094 25.6064 0.543457 31.2213 0.543457 37.5C0.543457 43.7787 6.13094 49.3936 14.9232 53.2068C13.8275 62.7326 15.8959 70.3843 21.3315 73.5241C23.0673 74.5259 25.0307 75 27.1511 75C31.6642 75 36.8804 72.7338 42.1195 68.8459C47.3591 72.7338 52.5816 75 57.0948 75C59.2117 75 61.1751 74.5259 62.9144 73.5241C68.3499 70.3844 70.4189 62.7329 69.3226 53.2068C78.1116 49.3936 83.6956 43.7773 83.6956 37.5C83.6956 31.2213 78.1082 25.6064 69.3159 21.7932C70.4116 12.2674 68.3432 4.61567 62.9076 1.4759C61.1718 0.470663 59.2084 0 57.088 0C52.5748 0 47.3587 2.26618 42.1195 6.15409C36.8801 2.26618 31.6627 0 27.1511 0ZM27.1511 6.06608C29.8592 6.06608 33.4404 7.50671 37.3286 10.1756C35.0425 12.334 32.8036 14.7884 30.6496 17.5212C27.1559 18.0224 23.8619 18.753 20.8104 19.6674C20.7941 19.4556 20.7552 19.2335 20.7428 19.0242C20.3721 12.8541 21.7265 8.25474 24.3631 6.72955C25.1426 6.27893 26.0528 6.06608 27.1511 6.06608ZM57.088 6.06608C58.1829 6.06608 59.0964 6.27893 59.876 6.72955C62.5126 8.25127 63.867 12.8541 63.4963 19.0242C63.4837 19.2335 63.4451 19.4556 63.4286 19.6674C60.3753 18.7524 57.0789 18.0224 53.5827 17.5212C51.4288 14.7888 49.1965 12.3338 46.9105 10.1756C50.7984 7.50716 54.3813 6.06608 57.088 6.06608ZM42.1195 14.0278C43.0587 14.8831 43.9914 15.787 44.9346 16.7765C43.9999 16.7451 43.0702 16.702 42.1195 16.702C41.1712 16.702 40.2438 16.7452 39.3113 16.7765C40.2536 15.7881 41.1812 14.8823 42.1195 14.0278ZM42.1195 22.7681C44.9907 22.7681 47.712 22.9287 50.294 23.2082C51.8687 25.3495 53.4205 27.6134 54.8752 30.134C56.2695 32.5502 57.5025 35.0233 58.5903 37.5C57.5023 39.9782 56.2704 42.4551 54.8752 44.8727C53.425 47.3861 51.877 49.6354 50.3075 51.7715C47.6343 52.0642 44.892 52.2319 42.1195 52.2319C39.2484 52.2319 36.5271 52.0713 33.9451 51.7918C32.3704 49.6505 30.8186 47.3934 29.3639 44.8727C27.9687 42.4551 26.7371 39.9782 25.6488 37.5C26.7363 35.0233 27.9696 32.5502 29.3639 30.134C30.8146 27.6206 32.3617 25.3646 33.9315 23.2285C36.6048 22.9358 39.347 22.7681 42.1195 22.7681ZM58.5632 24.6434C59.9378 24.9755 61.2593 25.3339 62.5016 25.7334C62.2201 27.0058 61.8759 28.3025 61.4865 29.6127C61.0407 28.7757 60.6083 27.9361 60.1264 27.101C59.6305 26.242 59.08 25.4703 58.5632 24.6434ZM25.6691 24.6502C25.1541 25.4745 24.607 26.2448 24.1127 27.101C23.6309 27.9362 23.1983 28.7756 22.7526 29.6127C22.3623 28.2998 22.0125 27.0015 21.7308 25.7267C22.9958 25.3268 24.314 24.9726 25.6691 24.6502ZM16.0262 27.9541C16.7562 31.0378 17.7689 34.2344 19.0713 37.4932C17.7716 40.7443 16.7632 43.9351 16.033 47.0121C9.99936 44.0971 6.60664 40.4685 6.60664 37.5C6.60664 34.4531 9.90457 30.9808 15.4307 28.2181C15.6194 28.1237 15.8335 28.0462 16.0262 27.9541ZM68.2061 27.9879C74.2397 30.9029 77.6325 34.5315 77.6325 37.5C77.6325 40.5469 74.3345 44.0192 68.8084 46.7819C68.6197 46.8763 68.4056 46.9537 68.2129 47.0459C67.4824 43.9604 66.4781 40.7608 65.1745 37.5C66.4727 34.2517 67.4765 31.0623 68.2061 27.9879ZM42.1195 30.5673C38.2911 30.5673 35.1902 33.6697 35.1902 37.5C35.1902 41.3303 38.2911 44.4327 42.1195 44.4327C45.948 44.4327 49.0489 41.3303 49.0489 37.5C49.0489 33.6697 45.948 30.5673 42.1195 30.5673ZM22.7526 45.3873C23.1985 46.2246 23.6373 47.0636 24.1195 47.899C24.6148 48.7573 25.1597 49.5303 25.6759 50.3566C24.3013 50.0245 22.9798 49.6661 21.7375 49.2666C22.0192 47.9934 22.3628 46.6984 22.7526 45.3873ZM61.4865 45.394C61.8764 46.7057 62.2268 47.9997 62.5083 49.2733C61.2433 49.6732 59.9251 50.0274 58.57 50.3498C59.085 49.5255 59.6321 48.7552 60.1264 47.899C60.6072 47.0655 61.0417 46.2294 61.4865 45.394ZM20.8104 55.3326C23.8638 56.2476 27.1602 56.9776 30.6563 57.4788C32.811 60.2126 35.0415 62.6723 37.3286 64.8312C33.4407 67.4993 29.859 68.9407 27.1511 68.9407C26.0562 68.9407 25.1426 68.7211 24.3631 68.2704C21.7265 66.7487 20.3721 62.1526 20.7428 55.9826C20.7555 55.7711 20.7938 55.5466 20.8104 55.3326ZM63.4286 55.3326C63.4452 55.5466 63.4837 55.7711 63.4963 55.9826C63.867 62.1526 62.5126 66.7453 59.876 68.2704C59.0964 68.7211 58.1863 68.9407 57.088 68.9407C54.3801 68.9407 50.7984 67.4997 46.9105 64.8312C49.1978 62.672 51.4345 60.213 53.5895 57.4788C57.0832 56.9776 60.3772 56.247 63.4286 55.3326ZM39.3045 58.2235C40.2392 58.2549 41.1689 58.298 42.1195 58.298C43.0702 58.298 43.9999 58.2549 44.9346 58.2235C43.9914 59.213 43.0587 60.117 42.1195 60.9722C41.1803 60.1169 40.2477 59.213 39.3045 58.2235Z" fill="white" fill-opacity="0.25"/>
</svg>
