<svg width="20" height="20" viewBox="0 0 20 20" fill="none" xmlns="http://www.w3.org/2000/svg">
<path fill-rule="evenodd" clip-rule="evenodd" d="M16.7023 3.35362C17.0957 3.79614 17.0957 4.51361 16.7023 4.95614L15.6951 6.08929C15.3017 6.53181 14.664 6.53181 14.2706 6.08929C13.8772 5.64676 13.8772 4.92929 14.2706 4.48677L15.2778 3.35362C15.6712 2.9111 16.309 2.9111 16.7023 3.35362Z" fill="black"/>
<path fill-rule="evenodd" clip-rule="evenodd" d="M19.539 10C19.539 10.6151 19.0404 11.1138 18.4253 11.1138H16.8501C16.235 11.1138 15.7364 10.6151 15.7364 10C15.7364 9.38488 16.235 8.88623 16.8501 8.88623H18.4253C19.0404 8.88623 19.539 9.38488 19.539 10Z" fill="black"/>
<path fill-rule="evenodd" clip-rule="evenodd" d="M4.26363 10C4.26363 10.6151 3.76498 11.1138 3.14986 11.1138H1.57475C0.959629 11.1138 0.460976 10.6151 0.460976 10C0.460975 9.38488 0.959629 8.88623 1.57475 8.88623H3.14986C3.76498 8.88623 4.26363 9.38488 4.26363 10Z" fill="black"/>
<path fill-rule="evenodd" clip-rule="evenodd" d="M9.99964 19.5386C9.38452 19.5386 8.88586 19.04 8.88586 18.4249L8.88586 16.8497C8.88586 16.2346 9.38452 15.736 9.99964 15.736C10.6148 15.736 11.1134 16.2346 11.1134 16.8497L11.1134 18.4249C11.1134 19.04 10.6148 19.5386 9.99964 19.5386Z" fill="black"/>
<path fill-rule="evenodd" clip-rule="evenodd" d="M9.99964 4.26403C9.38452 4.26403 8.88586 3.76538 8.88586 3.15026L8.88586 1.57514C8.88586 0.960025 9.38452 0.461372 9.99964 0.461372C10.6148 0.461372 11.1134 0.960025 11.1134 1.57515L11.1134 3.15026C11.1134 3.76538 10.6148 4.26403 9.99964 4.26403Z" fill="black"/>
<path fill-rule="evenodd" clip-rule="evenodd" d="M3.73127 16.7022C3.28875 16.3089 3.28875 15.6711 3.73127 15.2778L4.86442 14.2705C5.30694 13.8772 6.02441 13.8772 6.46694 14.2705C6.90946 14.6639 6.90946 15.3016 6.46694 15.695L5.33379 16.7022C4.89126 17.0956 4.17379 17.0956 3.73127 16.7022Z" fill="black"/>
<path fill-rule="evenodd" clip-rule="evenodd" d="M6.46694 6.08929C6.02441 6.53181 5.30694 6.53181 4.86442 6.08929L3.73127 4.95614C3.28875 4.51361 3.28875 3.79614 3.73127 3.35362C4.17379 2.9111 4.89126 2.9111 5.33379 3.35362L6.46694 4.48677C6.90946 4.92929 6.90946 5.64676 6.46694 6.08929Z" fill="black"/>
<path fill-rule="evenodd" clip-rule="evenodd" d="M14.2706 14.2705C14.664 13.8772 15.3017 13.8772 15.6951 14.2705L16.7023 15.2778C17.0957 15.6711 17.0957 16.3089 16.7023 16.7022C16.309 17.0956 15.6712 17.0956 15.2778 16.7022L14.2706 15.695C13.8772 15.3016 13.8772 14.6639 14.2706 14.2705Z" fill="black"/>
<path fill-rule="evenodd" clip-rule="evenodd" d="M7.58671 10C7.58671 11.3326 8.667 12.4129 9.99961 12.4129C11.3322 12.4129 12.4125 11.3326 12.4125 10C12.4125 8.6674 11.3322 7.5871 9.99961 7.5871C8.667 7.5871 7.58671 8.6674 7.58671 10ZM9.99961 5.60001C7.56956 5.60001 5.59961 7.56995 5.59961 10C5.59961 12.4301 7.56956 14.4 9.99961 14.4C12.4297 14.4 14.3996 12.4301 14.3996 10C14.3996 7.56995 12.4297 5.60001 9.99961 5.60001Z" fill="black"/>
</svg>
