<svg width="75" height="75" viewBox="0 0 75 75" fill="none" xmlns="http://www.w3.org/2000/svg">
<path d="M37.5 0C16.7906 0 0 17.0535 0 38.0872C0 55.9342 12.1 70.8675 28.4125 75C28.2375 74.4858 28.125 73.8891 28.125 73.1496V66.6399C26.6031 66.6399 24.0531 66.6399 23.4125 66.6399C20.8469 66.6399 18.5656 65.5195 17.4594 63.4374C16.2312 61.1236 16.0187 57.5846 12.975 55.42C12.0719 54.6995 12.7594 53.8775 13.8 53.9886C15.7219 54.5408 17.3156 55.8802 18.8156 57.8671C20.3094 59.8572 21.0125 60.3079 23.8031 60.3079C25.1562 60.3079 27.1812 60.2285 29.0875 59.9238C30.1125 57.2799 31.8844 54.8455 34.05 53.6966C21.5625 52.3921 15.6031 46.0823 15.6031 37.5159C15.6031 33.8278 17.15 30.2603 19.7781 27.2546C18.9156 24.2711 17.8313 18.1866 20.1094 15.8697C25.7281 15.8697 29.125 19.5705 29.9406 20.5703C32.7406 19.5959 35.8156 19.0436 39.0469 19.0436C42.2844 19.0436 45.3719 19.5959 48.1781 20.5766C48.9844 19.5832 52.3844 15.8697 58.0156 15.8697C60.3031 18.1898 59.2062 24.2996 58.3344 27.2768C60.9469 30.2761 62.4844 33.8341 62.4844 37.5159C62.4844 46.076 56.5344 52.3826 44.0656 53.6934C47.4969 55.5121 50 60.6221 50 64.4721V73.1496C50 73.4797 49.9281 73.7177 49.8906 74.0002C64.5031 68.7981 75 54.7059 75 38.0872C75 17.0535 58.2094 0 37.5 0Z" fill="#5E646D"/>
</svg>
